<?xml version="1.0" encoding="UTF-8" standalone="no" ?>
<!DOCTYPE svg PUBLIC "-//W3C//DTD SVG 1.1//EN" "http://www.w3.org/Graphics/SVG/1.1/DTD/svg11.dtd">
<svg xmlns="http://www.w3.org/2000/svg" xmlns:xlink="http://www.w3.org/1999/xlink" version="1.1" width="864" height="456" viewBox="0 0 864 456" xml:space="preserve">
<desc>Created with Fabric.js 4.3.1</desc>
<defs>
</defs>
<g transform="matrix(1 0 0 1 66.6 239.56)"  >
<path style="stroke: rgb(0,0,0); stroke-width: 3; stroke-dasharray: none; stroke-linecap: round; stroke-dashoffset: 0; stroke-linejoin: round; stroke-miterlimit: 10; fill: none; fill-rule: nonzero; opacity: 1;"  transform=" translate(-66.6, -239.56)" d="M 86.003 203.497 Q 86 203.5 75.5 222.5 Q 65 241.5 61.5 250 Q 58 258.5 55.5 264 Q 53 269.5 50.5 273 Q 48 276.5 47.5 273 Q 47 269.5 48.5 267 Q 50 264.5 51.5 263 Q 53 261.5 55 260 Q 57 258.5 58.5 257 Q 60 255.5 61 253.5 Q 62 251.5 62.5 249 Q 63 246.5 64 243.5 Q 65 240.5 65.5 236.5 Q 66 232.5 67 229 Q 68 225.5 69.5 222.5 Q 71 219.5 72 217.5 L 73.003 215.497" stroke-linecap="round" />
</g>
<g transform="matrix(1 0 0 1 127.5 245.5)"  >
<path style="stroke: rgb(0,0,0); stroke-width: 3; stroke-dasharray: none; stroke-linecap: round; stroke-dashoffset: 0; stroke-linejoin: round; stroke-miterlimit: 10; fill: none; fill-rule: nonzero; opacity: 1;"  transform=" translate(-127.5, -245.5)" d="M 148.003 214.497 Q 148 214.5 138.5 232.5 Q 129 250.5 127.5 253.5 Q 126 256.5 123 261.5 Q 120 266.5 116 270.5 Q 112 274.5 109.5 275.5 L 106.997 276.503" stroke-linecap="round" />
</g>
<g transform="matrix(1 0 0 1 73 266.1)"  >
<path style="stroke: rgb(0,0,0); stroke-width: 3; stroke-dasharray: none; stroke-linecap: round; stroke-dashoffset: 0; stroke-linejoin: round; stroke-miterlimit: 10; fill: none; fill-rule: nonzero; opacity: 1;"  transform=" translate(-73, -266.1)" d="M 48.997 267.503 Q 49 267.5 53 266 Q 57 264.5 59.5 264 Q 62 263.5 65.5 265 Q 69 266.5 71.5 267 Q 74 267.5 77.5 268 Q 81 268.5 83.5 268.5 Q 86 268.5 89 268 Q 92 267.5 94.5 266.5 L 97.003 265.497" stroke-linecap="round" />
</g>
<g transform="matrix(1 0 0 1 106.5 203)"  >
<path style="stroke: rgb(0,0,0); stroke-width: 3; stroke-dasharray: none; stroke-linecap: round; stroke-dashoffset: 0; stroke-linejoin: round; stroke-miterlimit: 10; fill: none; fill-rule: nonzero; opacity: 1;"  transform=" translate(-106.5, -203)" d="M 84.997 200.497 Q 85 200.5 88 201 Q 91 201.5 100.5 202 Q 110 202.5 113.5 202.5 Q 117 202.5 120.5 203.5 Q 124 204.5 126 205 L 128.003 205.503" stroke-linecap="round" />
</g>
<g transform="matrix(1 0 0 1 120.5 165.92)"  >
<path style="stroke: rgb(0,0,0); stroke-width: 3; stroke-dasharray: none; stroke-linecap: round; stroke-dashoffset: 0; stroke-linejoin: round; stroke-miterlimit: 10; fill: none; fill-rule: nonzero; opacity: 1;"  transform=" translate(-120.5, -165.92)" d="M 83.003 200.503 Q 83 200.5 83 198.5 Q 83 196.5 82.5 194 Q 82 191.5 81.5 186.5 Q 81 181.5 81 175.5 Q 81 169.5 81.5 162.5 Q 82 155.5 82.5 148.5 Q 83 141.5 84 135.5 Q 85 129.5 86 125 Q 87 120.5 87.5 117.5 Q 88 114.5 90.5 114 Q 93 113.5 95.5 115.5 Q 98 117.5 102 121 Q 106 124.5 111.5 127 Q 117 129.5 124 130 Q 131 130.5 136.5 130 Q 142 129.5 146.5 127.5 Q 151 125.5 153.5 124 Q 156 122.5 158 122 Q 160 121.5 160 125 Q 160 128.5 160 133.5 Q 160 138.5 160 144.5 Q 160 150.5 159 158 Q 158 165.5 158 174.5 Q 158 183.5 157.5 192 Q 157 200.5 156.5 205.5 Q 156 210.5 156 213 Q 156 215.5 154.5 217 Q 153 218.5 151 217 Q 149 215.5 146.5 214 Q 144 212.5 141.5 212 Q 139 211.5 136 212.5 Q 133 213.5 131.5 215 L 129.997 216.503" stroke-linecap="round" />
</g>
<g transform="matrix(1 0 0 1 376 137)"  >
<path style="stroke: rgb(0,0,0); stroke-width: 3; stroke-dasharray: none; stroke-linecap: round; stroke-dashoffset: 0; stroke-linejoin: round; stroke-miterlimit: 10; fill: none; fill-rule: nonzero; opacity: 1;"  transform=" translate(-376, -137)" d="M 381.003 88.497 Q 381 88.5 379 93 Q 377 97.5 376.5 103.5 Q 376 109.5 375.5 114 Q 375 118.5 374.5 128 Q 374 137.5 373.5 145 Q 373 152.5 372.5 159 Q 372 165.5 371.5 171 Q 371 176.5 371 181 L 371 185.503" stroke-linecap="round" />
</g>
<g transform="matrix(1 0 0 1 402.58 138.02)"  >
<path style="stroke: rgb(0,0,0); stroke-width: 3; stroke-dasharray: none; stroke-linecap: round; stroke-dashoffset: 0; stroke-linejoin: round; stroke-miterlimit: 10; fill: none; fill-rule: nonzero; opacity: 1;"  transform=" translate(-402.58, -138.02)" d="M 385.997 81.503 Q 386 81.5 389 81.5 Q 392 81.5 394 81 Q 396 80.5 399.5 80.5 Q 403 80.5 405 80.5 Q 407 80.5 411 80.5 Q 415 80.5 418.5 80.5 Q 422 80.5 425.5 80.5 Q 429 80.5 433 79.5 Q 437 78.5 439.5 78 Q 442 77.5 444 77 Q 446 76.5 445 80 Q 444 83.5 443 86 Q 442 88.5 441.5 92 Q 441 95.5 440 99.5 Q 439 103.5 438 106.5 Q 437 109.5 436.5 112.5 Q 436 115.5 436 118.5 Q 436 121.5 435.5 125 Q 435 128.5 435 132 Q 435 135.5 435 138.5 Q 435 141.5 435 144 Q 435 146.5 435 149 Q 435 151.5 434.5 153.5 Q 434 155.5 434 158 Q 434 160.5 433.5 163.5 Q 433 166.5 433 169.5 Q 433 172.5 433 175.5 Q 433 178.5 433 180.5 Q 433 182.5 433 185 Q 433 187.5 432.5 189.5 Q 432 191.5 432 193.5 Q 432 195.5 432 197.5 Q 432 199.5 430 199 Q 428 198.5 426 197 Q 424 195.5 419.5 194 Q 415 192.5 412 192 Q 409 191.5 405 191.5 Q 401 191.5 397.5 192 Q 394 192.5 391 192.5 Q 388 192.5 385.5 192.5 Q 383 192.5 380 193 Q 377 193.5 373.5 193.5 Q 370 193.5 366.5 193.5 Q 363 193.5 361 194 Q 359 194.5 361 196 Q 363 197.5 366.5 195.5 Q 370 193.5 372 192.5 L 374.003 191.497" stroke-linecap="round" />
</g>
<g transform="matrix(1 0 0 1 363 28)"  >
<path style="stroke: rgb(0,0,0); stroke-width: 3; stroke-dasharray: none; stroke-linecap: round; stroke-dashoffset: 0; stroke-linejoin: round; stroke-miterlimit: 10; fill: none; fill-rule: nonzero; opacity: 1;"  transform=" translate(-363, -28)" d="M 360 11.497 Q 360 11.5 363 19.5 Q 366 27.5 366 32 Q 366 36.5 366 40.5 L 366 44.503" stroke-linecap="round" />
</g>
<g transform="matrix(1 0 0 1 385.51 31.44)"  >
<path style="stroke: rgb(0,0,0); stroke-width: 3; stroke-dasharray: none; stroke-linecap: round; stroke-dashoffset: 0; stroke-linejoin: round; stroke-miterlimit: 10; fill: none; fill-rule: nonzero; opacity: 1;"  transform=" translate(-385.51, -31.44)" d="M 389.003 32.503 Q 389 32.5 389.5 30.5 Q 390 28.5 389 26.5 Q 388 24.5 386 25 Q 384 25.5 382.5 29 Q 381 32.5 381.5 34.5 Q 382 36.5 384 37.5 Q 386 38.5 387 36.5 Q 388 34.5 388 32.5 L 388 30.497" stroke-linecap="round" />
</g>
<g transform="matrix(1 0 0 1 406 40.7)"  >
<path style="stroke: rgb(0,0,0); stroke-width: 3; stroke-dasharray: none; stroke-linecap: round; stroke-dashoffset: 0; stroke-linejoin: round; stroke-miterlimit: 10; fill: none; fill-rule: nonzero; opacity: 1;"  transform=" translate(-406, -40.7)" d="M 408.003 29.503 Q 408 29.5 409 27.5 Q 410 25.5 407.5 24.5 Q 405 23.5 403.5 26.5 Q 402 29.5 402 31.5 Q 402 33.5 404 33 Q 406 32.5 408 31 Q 410 29.5 412 29 Q 414 28.5 415 32 Q 416 35.5 416 38 Q 416 40.5 415.5 43 Q 415 45.5 413.5 47.5 Q 412 49.5 410 51.5 Q 408 53.5 406 54.5 Q 404 55.5 402 56.5 Q 400 57.5 398 57.5 L 395.997 57.5" stroke-linecap="round" />
</g>
<g transform="matrix(1 0 0 1 428.5 25.5)"  >
<path style="stroke: rgb(0,0,0); stroke-width: 3; stroke-dasharray: none; stroke-linecap: round; stroke-dashoffset: 0; stroke-linejoin: round; stroke-miterlimit: 10; fill: none; fill-rule: nonzero; opacity: 1;"  transform=" translate(-428.5, -25.5)" d="M 427.997 22.5 Q 428 22.5 428.5 25.5 L 429.003 28.5" stroke-linecap="round" />
</g>
<g transform="matrix(1 0 0 1 434 11.5)"  >
<path style="stroke: rgb(0,0,0); stroke-width: 3; stroke-dasharray: none; stroke-linecap: round; stroke-dashoffset: 0; stroke-linejoin: round; stroke-miterlimit: 10; fill: none; fill-rule: nonzero; opacity: 1;"  transform=" translate(-434, -11.5)" d="M 433.997 9.5 Q 434 9.5 434 11.5 L 434.003 13.5" stroke-linecap="round" />
</g>
<g transform="matrix(1 0 0 1 450 26.56)"  >
<path style="stroke: rgb(0,0,0); stroke-width: 3; stroke-dasharray: none; stroke-linecap: round; stroke-dashoffset: 0; stroke-linejoin: round; stroke-miterlimit: 10; fill: none; fill-rule: nonzero; opacity: 1;"  transform=" translate(-450, -26.56)" d="M 440 18.497 Q 440 18.5 441 20.5 Q 442 22.5 442 24.5 Q 442 26.5 441 29.5 Q 440 32.5 440 29.5 Q 440 26.5 442 23.5 Q 444 20.5 446.5 18 Q 449 15.5 451.5 14 Q 454 12.5 455 16 Q 456 19.5 455 22 Q 454 24.5 453 28 Q 452 31.5 451.5 34 Q 451 36.5 453 38.5 Q 455 40.5 457.5 39 L 460.003 37.497" stroke-linecap="round" />
</g>
<g transform="matrix(1 0 0 1 601.56 227.5)"  >
<path style="stroke: rgb(0,0,0); stroke-width: 3; stroke-dasharray: none; stroke-linecap: round; stroke-dashoffset: 0; stroke-linejoin: round; stroke-miterlimit: 10; fill: none; fill-rule: nonzero; opacity: 1;"  transform=" translate(-601.56, -227.5)" d="M 600 68.497 Q 600 68.5 598 71.5 Q 596 74.5 596 78 Q 596 81.5 596 85.5 Q 596 89.5 595.5 94.5 Q 595 99.5 595.5 104.5 Q 596 109.5 596.5 115 Q 597 120.5 598 127.5 Q 599 134.5 600 141.5 Q 601 148.5 602 156.5 Q 603 164.5 604 173.5 Q 605 182.5 605 191.5 Q 605 200.5 605.5 209 Q 606 217.5 607 225.5 Q 608 233.5 608 241.5 Q 608 249.5 608 257.5 Q 608 265.5 608 273.5 Q 608 281.5 607.5 289.5 Q 607 297.5 606.5 305 Q 606 312.5 606 317.5 Q 606 322.5 605.5 330 Q 605 337.5 604.5 343 Q 604 348.5 604 353 Q 604 357.5 603 362.5 Q 602 367.5 601 373 Q 600 378.5 600 382.5 L 600 386.503" stroke-linecap="round" />
</g>
<g transform="matrix(1 0 0 1 633.5 67.5)"  >
<path style="stroke: rgb(0,0,0); stroke-width: 3; stroke-dasharray: none; stroke-linecap: round; stroke-dashoffset: 0; stroke-linejoin: round; stroke-miterlimit: 10; fill: none; fill-rule: nonzero; opacity: 1;"  transform=" translate(-633.5, -67.5)" d="M 605.997 72.503 Q 606 72.5 627 68.5 Q 648 64.5 650.5 64 Q 653 63.5 657 63 L 661.003 62.497" stroke-linecap="round" />
</g>
<g transform="matrix(1 0 0 1 709.5 56)"  >
<path style="stroke: rgb(0,0,0); stroke-width: 3; stroke-dasharray: none; stroke-linecap: round; stroke-dashoffset: 0; stroke-linejoin: round; stroke-miterlimit: 10; fill: none; fill-rule: nonzero; opacity: 1;"  transform=" translate(-709.5, -56)" d="M 691.997 58.503 Q 692 58.5 694 58.5 Q 696 58.5 699 58 Q 702 57.5 705.5 57 Q 709 56.5 712.5 55.5 Q 716 54.5 719 54 Q 722 53.5 724.5 53.5 L 727.003 53.5" stroke-linecap="round" />
</g>
<g transform="matrix(1 0 0 1 691 213.1)"  >
<path style="stroke: rgb(0,0,0); stroke-width: 3; stroke-dasharray: none; stroke-linecap: round; stroke-dashoffset: 0; stroke-linejoin: round; stroke-miterlimit: 10; fill: none; fill-rule: nonzero; opacity: 1;"  transform=" translate(-691, -213.1)" d="M 590.997 63.503 Q 591 63.5 627.5 57 Q 664 50.5 673 50 Q 682 49.5 690 49.5 Q 698 49.5 705 49 Q 712 48.5 719 47.5 Q 726 46.5 732.5 45.5 Q 739 44.5 745 43.5 Q 751 42.5 757.5 41.5 Q 764 40.5 769.5 39 Q 775 37.5 779 36.5 Q 783 35.5 785.5 35 Q 788 34.5 789.5 36 Q 791 37.5 790.5 40 Q 790 42.5 789.5 46.5 Q 789 50.5 788 55 Q 787 59.5 786 64.5 Q 785 69.5 784 76 Q 783 82.5 782 88.5 Q 781 94.5 780.5 102.5 Q 780 110.5 779.5 118.5 Q 779 126.5 779 134 Q 779 141.5 779.5 149.5 Q 780 157.5 780.5 165 Q 781 172.5 781.5 180.5 Q 782 188.5 782.5 196 Q 783 203.5 783.5 211.5 Q 784 219.5 784.5 227.5 Q 785 235.5 785 242 Q 785 248.5 785.5 255.5 Q 786 262.5 786 269 Q 786 275.5 786 281.5 Q 786 287.5 786.5 294 Q 787 300.5 787.5 305.5 Q 788 310.5 788 316.5 Q 788 322.5 788.5 327 Q 789 331.5 789.5 336.5 Q 790 341.5 790 346 Q 790 350.5 790.5 354 Q 791 357.5 791 360.5 Q 791 363.5 791 366 Q 791 368.5 790.5 370.5 Q 790 372.5 789 374.5 Q 788 376.5 785.5 376.5 Q 783 376.5 779 375.5 Q 775 374.5 772.5 373.5 Q 770 372.5 767 372 Q 764 371.5 760 371.5 Q 756 371.5 751.5 371.5 Q 747 371.5 742 372 Q 737 372.5 732 372.5 Q 727 372.5 721.5 373 Q 716 373.5 710 375 Q 704 376.5 698 378 Q 692 379.5 686.5 381 Q 681 382.5 674.5 384 Q 668 385.5 662 387 Q 656 388.5 650 389 Q 644 389.5 637.5 390 Q 631 390.5 625.5 390.5 Q 620 390.5 614.5 390.5 Q 609 390.5 605 391 L 600.997 391.503" stroke-linecap="round" />
</g>
<g transform="matrix(1 0 0 1 687 100)"  >
<path style="stroke: rgb(0,0,0); stroke-width: 3; stroke-dasharray: none; stroke-linecap: round; stroke-dashoffset: 0; stroke-linejoin: round; stroke-miterlimit: 10; fill: none; fill-rule: nonzero; opacity: 1;"  transform=" translate(-687, -100)" d="M 600.997 109.503 Q 601 109.5 623 108 Q 645 106.5 647 106 Q 649 105.5 660 103.5 Q 671 101.5 683 99.5 Q 695 97.5 707 95.5 Q 719 93.5 729 92.5 Q 739 91.5 747 91 Q 755 90.5 760.5 90.5 Q 766 90.5 769.5 90.5 L 773.003 90.5" stroke-linecap="round" />
</g>
<g transform="matrix(1 0 0 1 687.5 153)"  >
<path style="stroke: rgb(0,0,0); stroke-width: 3; stroke-dasharray: none; stroke-linecap: round; stroke-dashoffset: 0; stroke-linejoin: round; stroke-miterlimit: 10; fill: none; fill-rule: nonzero; opacity: 1;"  transform=" translate(-687.5, -153)" d="M 610.997 164.503 Q 611 164.5 613.5 164.5 Q 616 164.5 621.5 163.5 Q 627 162.5 636 160.5 Q 645 158.5 655.5 156 Q 666 153.5 677 151.5 Q 688 149.5 699.5 148 Q 711 146.5 721.5 145 Q 732 143.5 741.5 143 Q 751 142.5 757.5 142 L 764.003 141.497" stroke-linecap="round" />
</g>
<g transform="matrix(1 0 0 1 695 189)"  >
<path style="stroke: rgb(0,0,0); stroke-width: 3; stroke-dasharray: none; stroke-linecap: round; stroke-dashoffset: 0; stroke-linejoin: round; stroke-miterlimit: 10; fill: none; fill-rule: nonzero; opacity: 1;"  transform=" translate(-695, -189)" d="M 621.997 200.503 Q 622 200.5 628.5 200 Q 635 199.5 640 199 Q 645 198.5 654 197 Q 663 195.5 674 193 Q 685 190.5 697.5 188.5 Q 710 186.5 721.5 184 Q 733 181.5 743 180.5 Q 753 179.5 760.5 178.5 L 768.003 177.497" stroke-linecap="round" />
</g>
<g transform="matrix(1 0 0 1 682 246)"  >
<path style="stroke: rgb(0,0,0); stroke-width: 3; stroke-dasharray: none; stroke-linecap: round; stroke-dashoffset: 0; stroke-linejoin: round; stroke-miterlimit: 10; fill: none; fill-rule: nonzero; opacity: 1;"  transform=" translate(-682, -246)" d="M 603.997 262.503 Q 604 262.5 611 261.5 Q 618 260.5 627.5 258 Q 637 255.5 648 252.5 Q 659 249.5 671.5 246.5 Q 684 243.5 695.5 241 Q 707 238.5 717.5 236.5 Q 728 234.5 737 233 Q 746 231.5 753 230.5 L 760.003 229.497" stroke-linecap="round" />
</g>
<g transform="matrix(1 0 0 1 677 282.44)"  >
<path style="stroke: rgb(0,0,0); stroke-width: 3; stroke-dasharray: none; stroke-linecap: round; stroke-dashoffset: 0; stroke-linejoin: round; stroke-miterlimit: 10; fill: none; fill-rule: nonzero; opacity: 1;"  transform=" translate(-677, -282.44)" d="M 601.997 299.503 Q 602 299.5 606.5 300 Q 611 300.5 618 300 Q 625 299.5 633.5 297 Q 642 294.5 653.5 291 Q 665 287.5 677 284 Q 689 280.5 701 276.5 Q 713 272.5 724 270 Q 735 267.5 743.5 266 L 752.003 264.497" stroke-linecap="round" />
</g>
<g transform="matrix(1 0 0 1 684 326.41)"  >
<path style="stroke: rgb(0,0,0); stroke-width: 3; stroke-dasharray: none; stroke-linecap: round; stroke-dashoffset: 0; stroke-linejoin: round; stroke-miterlimit: 10; fill: none; fill-rule: nonzero; opacity: 1;"  transform=" translate(-684, -326.41)" d="M 608.997 344.503 Q 609 344.5 616 345 Q 623 345.5 631 344.5 Q 639 343.5 649 341 Q 659 338.5 669.5 335 Q 680 331.5 691.5 327.5 Q 703 323.5 714 320 Q 725 316.5 734.5 313.5 Q 744 310.5 751.5 309 L 759.003 307.497" stroke-linecap="round" />
</g>
<g transform="matrix(1 0 0 1 274.5 148)"  >
<path style="stroke: rgb(128,128,128); stroke-width: 3; stroke-dasharray: none; stroke-linecap: round; stroke-dashoffset: 0; stroke-linejoin: round; stroke-miterlimit: 10; fill: none; fill-rule: nonzero; opacity: 1;"  transform=" translate(-274.5, -148)" d="M 164.997 179.503 Q 165 179.5 167 179.5 Q 169 179.5 171 178.5 Q 173 177.5 175 175.5 Q 177 173.5 178.5 172 Q 180 170.5 182 169 Q 184 167.5 187.5 165.5 Q 191 163.5 194.5 161.5 Q 198 159.5 200.5 158 Q 203 156.5 206.5 155 Q 210 153.5 212.5 152 Q 215 150.5 218 149.5 Q 221 148.5 224 147 Q 227 145.5 229.5 144.5 Q 232 143.5 235 142 Q 238 140.5 241.5 139.5 Q 245 138.5 247.5 137 Q 250 135.5 253 134.5 Q 256 133.5 258.5 132.5 Q 261 131.5 263.5 131 Q 266 130.5 269 129.5 Q 272 128.5 275 128 Q 278 127.5 281 126.5 Q 284 125.5 287.5 124.5 Q 291 123.5 294 123 Q 297 122.5 299.5 121.5 Q 302 120.5 305 120 Q 308 119.5 310.5 119 Q 313 118.5 315.5 118 Q 318 117.5 321 117.5 Q 324 117.5 327 117 Q 330 116.5 332.5 116.5 Q 335 116.5 337.5 116.5 Q 340 116.5 342 117 Q 344 117.5 347.5 119 Q 351 120.5 353.5 121 Q 356 121.5 358 121.5 Q 360 121.5 362 122 Q 364 122.5 367 123 Q 370 123.5 372.5 124.5 Q 375 125.5 377.5 126.5 Q 380 127.5 382 128 L 384.003 128.503" stroke-linecap="round" />
</g>
<g transform="matrix(1 0 0 1 375 126.56)"  >
<path style="stroke: rgb(128,128,128); stroke-width: 3; stroke-dasharray: none; stroke-linecap: round; stroke-dashoffset: 0; stroke-linejoin: round; stroke-miterlimit: 10; fill: none; fill-rule: nonzero; opacity: 1;"  transform=" translate(-375, -126.56)" d="M 357.997 110.497 Q 358 110.5 361 110 Q 364 109.5 366.5 110 Q 369 110.5 371.5 112.5 Q 374 114.5 375.5 116 Q 377 117.5 378.5 119 Q 380 120.5 382 121.5 Q 384 122.5 386 123.5 Q 388 124.5 390 125.5 Q 392 126.5 392 128.5 Q 392 130.5 390 132.5 Q 388 134.5 385.5 136 Q 383 137.5 380.5 139 Q 378 140.5 376 142 L 373.997 143.503" stroke-linecap="round" />
</g>
<g transform="matrix(1 0 0 1 338 355.5)"  >
<path style="stroke: rgb(78,78,243); stroke-width: 3; stroke-dasharray: none; stroke-linecap: round; stroke-dashoffset: 0; stroke-linejoin: round; stroke-miterlimit: 10; fill: none; fill-rule: nonzero; opacity: 1;"  transform=" translate(-338, -355.5)" d="M 359.003 293.497 Q 359 293.5 357.5 296.5 Q 356 299.5 354.5 304.5 Q 353 309.5 352 313.5 Q 351 317.5 349.5 323 Q 348 328.5 347 333 Q 346 337.5 345 341.5 Q 344 345.5 343 349.5 Q 342 353.5 340.5 357 Q 339 360.5 338 364.5 Q 337 368.5 335.5 372 Q 334 375.5 333 378.5 Q 332 381.5 331 383.5 Q 330 385.5 329 388 Q 328 390.5 327 393 Q 326 395.5 325 398.5 Q 324 401.5 323.5 404.5 Q 323 407.5 322 409.5 Q 321 411.5 319 414.5 L 316.997 417.503" stroke-linecap="round" />
</g>
<g transform="matrix(1 0 0 1 478 301.5)"  >
<path style="stroke: rgb(78,78,243); stroke-width: 3; stroke-dasharray: none; stroke-linecap: round; stroke-dashoffset: 0; stroke-linejoin: round; stroke-miterlimit: 10; fill: none; fill-rule: nonzero; opacity: 1;"  transform=" translate(-478, -301.5)" d="M 477.997 301.5 L 478.003 301.5" stroke-linecap="round" />
</g>
<g transform="matrix(1 0 0 1 400 357.5)"  >
<path style="stroke: rgb(78,78,243); stroke-width: 3; stroke-dasharray: none; stroke-linecap: round; stroke-dashoffset: 0; stroke-linejoin: round; stroke-miterlimit: 10; fill: none; fill-rule: nonzero; opacity: 1;"  transform=" translate(-400, -357.5)" d="M 477.003 297.497 Q 477 297.5 477 299.5 Q 477 301.5 476 305.5 Q 475 309.5 473.5 314.5 Q 472 319.5 471 324.5 Q 470 329.5 468.5 334.5 Q 467 339.5 466.5 343 Q 466 346.5 465 349.5 Q 464 352.5 463.5 355 Q 463 357.5 462 360.5 Q 461 363.5 460.5 367.5 Q 460 371.5 459 375 Q 458 378.5 457 381 Q 456 383.5 455.5 386.5 Q 455 389.5 455.5 392 Q 456 394.5 456 396.5 Q 456 398.5 455.5 400.5 Q 455 402.5 453 403 Q 451 403.5 449 402.5 Q 447 401.5 443 401.5 Q 439 401.5 436 401.5 Q 433 401.5 429.5 402 Q 426 402.5 422 403 Q 418 403.5 413 404.5 Q 408 405.5 403.5 406 Q 399 406.5 394.5 407.5 Q 390 408.5 385.5 410 Q 381 411.5 375.5 412.5 Q 370 413.5 364 414 Q 358 414.5 352.5 415.5 Q 347 416.5 342 416.5 Q 337 416.5 333 416.5 Q 329 416.5 326 417 L 322.997 417.503" stroke-linecap="round" />
</g>
<g transform="matrix(1 0 0 1 415.34 295.5)"  >
<path style="stroke: rgb(78,78,243); stroke-width: 3; stroke-dasharray: none; stroke-linecap: round; stroke-dashoffset: 0; stroke-linejoin: round; stroke-miterlimit: 10; fill: none; fill-rule: nonzero; opacity: 1;"  transform=" translate(-415.34, -295.5)" d="M 367.997 292.497 Q 368 292.5 366 293.5 Q 364 294.5 368 296 Q 372 297.5 377.5 297.5 Q 383 297.5 389 297 Q 395 296.5 401.5 296 Q 408 295.5 415 295 Q 422 294.5 429 295.5 Q 436 296.5 442.5 297.5 Q 449 298.5 454 298.5 Q 459 298.5 462.5 298 L 466.003 297.497" stroke-linecap="round" />
</g>
<g transform="matrix(1 0 0 1 413 316)"  >
<path style="stroke: rgb(78,78,243); stroke-width: 3; stroke-dasharray: none; stroke-linecap: round; stroke-dashoffset: 0; stroke-linejoin: round; stroke-miterlimit: 10; fill: none; fill-rule: nonzero; opacity: 1;"  transform=" translate(-413, -316)" d="M 351.997 325.503 Q 352 325.5 353.5 324 Q 355 322.5 359 321 Q 363 319.5 371.5 318 Q 380 316.5 389.5 315.5 Q 399 314.5 409 314.5 Q 419 314.5 429 315 Q 439 315.5 448 314 Q 457 312.5 462.5 310.5 Q 468 308.5 471 307.5 L 474.003 306.497" stroke-linecap="round" />
</g>
<g transform="matrix(1 0 0 1 380.5 335.5)"  >
<path style="stroke: rgb(78,78,243); stroke-width: 3; stroke-dasharray: none; stroke-linecap: round; stroke-dashoffset: 0; stroke-linejoin: round; stroke-miterlimit: 10; fill: none; fill-rule: nonzero; opacity: 1;"  transform=" translate(-380.5, -335.5)" d="M 339.997 342.503 Q 340 342.5 343.5 339.5 Q 347 336.5 353 334 Q 359 331.5 366.5 330 Q 374 328.5 382 328.5 Q 390 328.5 398 331 Q 406 333.5 413.5 337 L 421.003 340.503" stroke-linecap="round" />
</g>
<g transform="matrix(1 0 0 1 437.5 336.5)"  >
<path style="stroke: rgb(78,78,243); stroke-width: 3; stroke-dasharray: none; stroke-linecap: round; stroke-dashoffset: 0; stroke-linejoin: round; stroke-miterlimit: 10; fill: none; fill-rule: nonzero; opacity: 1;"  transform=" translate(-437.5, -336.5)" d="M 436.997 338.5 Q 437 338.5 437.5 336.5 L 438.003 334.5" stroke-linecap="round" />
</g>
<g transform="matrix(1 0 0 1 390 357)"  >
<path style="stroke: rgb(78,78,243); stroke-width: 3; stroke-dasharray: none; stroke-linecap: round; stroke-dashoffset: 0; stroke-linejoin: round; stroke-miterlimit: 10; fill: none; fill-rule: nonzero; opacity: 1;"  transform=" translate(-390, -357)" d="M 334.997 371.503 Q 335 371.5 337 371 Q 339 370.5 343.5 369.5 Q 348 368.5 357 365 Q 366 361.5 378 358.5 Q 390 355.5 401 352.5 Q 412 349.5 420.5 347.5 Q 429 345.5 434.5 344.5 Q 440 343.5 442.5 343 L 445.003 342.497" stroke-linecap="round" />
</g>
<g transform="matrix(1 0 0 1 368.5 375)"  >
<path style="stroke: rgb(78,78,243); stroke-width: 3; stroke-dasharray: none; stroke-linecap: round; stroke-dashoffset: 0; stroke-linejoin: round; stroke-miterlimit: 10; fill: none; fill-rule: nonzero; opacity: 1;"  transform=" translate(-368.5, -375)" d="M 335.997 380.5 Q 336 380.5 349.5 375 Q 363 369.5 370.5 369.5 Q 378 369.5 383.5 370.5 Q 389 371.5 395 372 L 401.003 372.503" stroke-linecap="round" />
</g>
<g transform="matrix(1 0 0 1 401 341)"  >
<path style="stroke: rgb(78,78,243); stroke-width: 3; stroke-dasharray: none; stroke-linecap: round; stroke-dashoffset: 0; stroke-linejoin: round; stroke-miterlimit: 10; fill: none; fill-rule: nonzero; opacity: 1;"  transform=" translate(-401, -341)" d="M 421.003 275.497 Q 421 275.5 410.5 308.5 Q 400 341.5 396.5 355 Q 393 368.5 389.5 380 Q 386 391.5 383.5 399 L 380.997 406.503" stroke-linecap="round" />
</g>
<g transform="matrix(1 0 0 1 421.5 340.15)"  >
<path style="stroke: rgb(78,78,243); stroke-width: 3; stroke-dasharray: none; stroke-linecap: round; stroke-dashoffset: 0; stroke-linejoin: round; stroke-miterlimit: 10; fill: none; fill-rule: nonzero; opacity: 1;"  transform=" translate(-421.5, -340.15)" d="M 421 307.497 Q 421 307.5 423 307 Q 425 306.5 425 311.5 Q 425 316.5 424 325.5 Q 423 334.5 422 345 Q 421 355.5 419.5 364.5 L 417.997 373.503" stroke-linecap="round" />
</g>
<g transform="matrix(1 0 0 1 435.5 342.5)"  >
<path style="stroke: rgb(78,78,243); stroke-width: 3; stroke-dasharray: none; stroke-linecap: round; stroke-dashoffset: 0; stroke-linejoin: round; stroke-miterlimit: 10; fill: none; fill-rule: nonzero; opacity: 1;"  transform=" translate(-435.5, -342.5)" d="M 450.003 295.497 Q 450 295.5 448.5 299 Q 447 302.5 445.5 311 Q 444 319.5 441 331.5 Q 438 343.5 433.5 357 Q 429 370.5 425 380 L 420.997 389.503" stroke-linecap="round" />
</g>
<g transform="matrix(1 0 0 1 363 357.5)"  >
<path style="stroke: rgb(78,78,243); stroke-width: 3; stroke-dasharray: none; stroke-linecap: round; stroke-dashoffset: 0; stroke-linejoin: round; stroke-miterlimit: 10; fill: none; fill-rule: nonzero; opacity: 1;"  transform=" translate(-363, -357.5)" d="M 378 297.497 Q 378 297.5 378.5 302.5 Q 379 307.5 379 313.5 Q 379 319.5 378.5 322 Q 378 324.5 377.5 327.5 Q 377 330.5 373.5 343 Q 370 355.5 366 368.5 Q 362 381.5 358 392.5 Q 354 403.5 350.5 410.5 L 346.997 417.503" stroke-linecap="round" />
</g>
<g transform="matrix(1 0 0 1 213.69 117.58)"  >
<path style="stroke: rgb(35,120,130); stroke-width: 3; stroke-dasharray: none; stroke-linecap: round; stroke-dashoffset: 0; stroke-linejoin: round; stroke-miterlimit: 10; fill: none; fill-rule: nonzero; opacity: 1;"  transform=" translate(-213.69, -117.58)" d="M 207.997 116.497 Q 208 116.5 205.5 121.5 Q 203 126.5 205.5 127.5 Q 208 128.5 212 124.5 Q 216 120.5 217.5 119 Q 219 117.5 219 115.5 Q 219 113.5 216.5 113 Q 214 112.5 211.5 115 Q 209 117.5 208.5 120.5 Q 208 123.5 210 124.5 Q 212 125.5 213.5 124 Q 215 122.5 216 120.5 Q 217 118.5 218 115.5 Q 219 112.5 217 111 Q 215 109.5 212 111.5 Q 209 113.5 208 115.5 Q 207 117.5 206.5 120.5 Q 206 123.5 206 125.5 Q 206 127.5 208.5 128 Q 211 128.5 213 127 Q 215 125.5 216.5 123.5 Q 218 121.5 219.5 119.5 Q 221 117.5 221 115 Q 221 112.5 218 113 Q 215 113.5 213 115 Q 211 116.5 210 119.5 Q 209 122.5 209 124.5 Q 209 126.5 210.5 128 Q 212 129.5 215 130 Q 218 130.5 219.5 127 Q 221 123.5 221 121 Q 221 118.5 219 118.5 Q 217 118.5 216.5 120.5 Q 216 122.5 216 124.5 Q 216 126.5 217.5 129 Q 219 131.5 222 130.5 Q 225 129.5 226 127.5 Q 227 125.5 226 123 Q 225 120.5 223 120.5 Q 221 120.5 218.5 121.5 Q 216 122.5 213 124.5 Q 210 126.5 208 129 Q 206 131.5 205 133.5 Q 204 135.5 206 135 Q 208 134.5 211.5 132 Q 215 129.5 217.5 127 Q 220 124.5 222 123 Q 224 121.5 222 122.5 Q 220 123.5 217.5 125.5 Q 215 127.5 213.5 130 Q 212 132.5 215 129 Q 218 125.5 220 123 Q 222 120.5 223.5 119 Q 225 117.5 220.5 119.5 Q 216 121.5 212.5 123 Q 209 124.5 207 125.5 Q 205 126.5 206.5 124 Q 208 121.5 211.5 118.5 Q 215 115.5 218 113 Q 221 110.5 223 109 Q 225 107.5 222 110.5 Q 219 113.5 216 115.5 Q 213 117.5 210.5 119 Q 208 120.5 208 118 Q 208 115.5 210 113 Q 212 110.5 214 108.5 Q 216 106.5 213.5 106.5 Q 211 106.5 208 108.5 Q 205 110.5 202.5 112 Q 200 113.5 202.5 110.5 Q 205 107.5 207 105.5 Q 209 103.5 211 102 Q 213 100.5 212 103 Q 211 105.5 208.5 107.5 Q 206 109.5 208.5 107 Q 211 104.5 212.5 103 Q 214 101.5 216.5 100.5 Q 219 99.5 218 102 Q 217 104.5 215 106.5 Q 213 108.5 211.5 110 Q 210 111.5 212.5 109 Q 215 106.5 212.5 109 Q 210 111.5 208.5 113.5 Q 207 115.5 209 114.5 Q 211 113.5 214 112 Q 217 110.5 214 114 Q 211 117.5 209 119 Q 207 120.5 207 118.5 Q 207 116.5 209 115 Q 211 113.5 215 111 Q 219 108.5 218 112 Q 217 115.5 215.5 117 Q 214 118.5 217.5 118 Q 221 117.5 223 117 Q 225 116.5 222.5 119 Q 220 121.5 218 123 L 215.997 124.503" stroke-linecap="round" />
</g>
<g transform="matrix(1 0 0 1 394.5 243)"  >
<path style="stroke: rgb(128,128,128); stroke-width: 3; stroke-dasharray: none; stroke-linecap: round; stroke-dashoffset: 0; stroke-linejoin: round; stroke-miterlimit: 10; fill: none; fill-rule: nonzero; opacity: 1;"  transform=" translate(-394.5, -243)" d="M 399.003 171.497 Q 399 171.5 397.5 173 Q 396 174.5 395.5 176.5 Q 395 178.5 394.5 180.5 Q 394 182.5 393.5 184.5 Q 393 186.5 392.5 189.5 Q 392 192.5 391.5 195 Q 391 197.5 391 201 Q 391 204.5 390.5 207.5 Q 390 210.5 390 213 Q 390 215.5 390.5 217.5 Q 391 219.5 391 221.5 Q 391 223.5 391.5 225.5 Q 392 227.5 392 230.5 Q 392 233.5 392 237 Q 392 240.5 392 243 Q 392 245.5 392.5 248 Q 393 250.5 393.5 254 Q 394 257.5 394.5 259.5 Q 395 261.5 395.5 263.5 Q 396 265.5 396.5 268 Q 397 270.5 397.5 273 Q 398 275.5 398 277.5 Q 398 279.5 398.5 282 Q 399 284.5 398.5 286.5 Q 398 288.5 397.5 290.5 Q 397 292.5 397 295 Q 397 297.5 396.5 299.5 Q 396 301.5 396 303.5 Q 396 305.5 395.5 307.5 Q 395 309.5 395 312 L 395 314.503" stroke-linecap="round" />
</g>
<g transform="matrix(1 0 0 1 394.11 310.72)"  >
<path style="stroke: rgb(128,128,128); stroke-width: 3; stroke-dasharray: none; stroke-linecap: round; stroke-dashoffset: 0; stroke-linejoin: round; stroke-miterlimit: 10; fill: none; fill-rule: nonzero; opacity: 1;"  transform=" translate(-394.11, -310.72)" d="M 396.003 301.497 Q 396 301.5 394.5 303.5 Q 393 305.5 392 308 Q 391 310.5 391 313.5 Q 391 316.5 391 318.5 Q 391 320.5 391.5 318 Q 392 315.5 391.5 313 Q 391 310.5 389 310.5 Q 387 310.5 387.5 313 Q 388 315.5 390.5 316.5 Q 393 317.5 395.5 317 Q 398 316.5 399.5 314 L 401.003 311.497" stroke-linecap="round" />
</g>
<g transform="matrix(1 0 0 1 393.41 318.78)"  >
<path style="stroke: rgb(35,120,130); stroke-width: 3; stroke-dasharray: none; stroke-linecap: round; stroke-dashoffset: 0; stroke-linejoin: round; stroke-miterlimit: 10; fill: none; fill-rule: nonzero; opacity: 1;"  transform=" translate(-393.41, -318.78)" d="M 384.003 313.497 Q 384 313.5 382 315 Q 380 316.5 379.5 319 Q 379 321.5 380.5 319 Q 382 316.5 383 314.5 Q 384 312.5 385.5 310 Q 387 307.5 386 309.5 Q 385 311.5 384 314 Q 383 316.5 382 319.5 Q 381 322.5 380 325 Q 379 327.5 380.5 325.5 Q 382 323.5 383 321.5 Q 384 319.5 384.5 317.5 Q 385 315.5 385 318 Q 385 320.5 385 323 Q 385 325.5 387 322.5 Q 389 319.5 390 317.5 Q 391 315.5 391.5 319.5 Q 392 323.5 392 325.5 Q 392 327.5 393 324 Q 394 320.5 394.5 318 Q 395 315.5 395.5 318.5 Q 396 321.5 395.5 324 Q 395 326.5 396.5 323.5 Q 398 320.5 398.5 318.5 Q 399 316.5 399.5 314.5 Q 400 312.5 400.5 315.5 Q 401 318.5 400 321 Q 399 323.5 400.5 321 Q 402 318.5 403.5 315.5 Q 405 312.5 406.5 310 Q 408 307.5 406.5 311.5 Q 405 315.5 403.5 318.5 Q 402 321.5 400.5 323.5 Q 399 325.5 398.5 323 Q 398 320.5 396 321 Q 394 321.5 392.5 323.5 Q 391 325.5 391 322.5 Q 391 319.5 391 322.5 Q 391 325.5 391 327.5 L 391 329.503" stroke-linecap="round" />
</g>
<g transform="matrix(1 0 0 1 522.17 246.33)"  >
<path style="stroke: rgb(128,128,128); stroke-width: 3; stroke-dasharray: none; stroke-linecap: round; stroke-dashoffset: 0; stroke-linejoin: round; stroke-miterlimit: 10; fill: none; fill-rule: nonzero; opacity: 1;"  transform=" translate(-522.17, -246.33)" d="M 638.003 175.497 Q 638 175.5 632.5 179.5 Q 627 183.5 624.5 185 Q 622 186.5 616 190 Q 610 193.5 605.5 196.5 Q 601 199.5 596 203 Q 591 206.5 586.5 209.5 Q 582 212.5 577.5 216.5 Q 573 220.5 568.5 223.5 Q 564 226.5 559.5 229.5 Q 555 232.5 551.5 235.5 Q 548 238.5 545.5 240.5 Q 543 242.5 540.5 244.5 Q 538 246.5 536 248 Q 534 249.5 532 250.5 Q 530 251.5 527.5 253 Q 525 254.5 523 256 Q 521 257.5 519 258.5 Q 517 259.5 515 261 Q 513 262.5 510.5 264.5 Q 508 266.5 506.5 268 Q 505 269.5 503 271.5 Q 501 273.5 498.5 275.5 Q 496 277.5 493.5 279.5 Q 491 281.5 488.5 283 Q 486 284.5 483 285.5 Q 480 286.5 478 287 Q 476 287.5 473.5 288.5 Q 471 289.5 468.5 290 Q 466 290.5 464 290.5 Q 462 290.5 458.5 290.5 Q 455 290.5 453 291 Q 451 291.5 448 292 Q 445 292.5 443 293 Q 441 293.5 439 294.5 Q 437 295.5 435 296.5 Q 433 297.5 431 299 Q 429 300.5 427 301.5 Q 425 302.5 422 303.5 Q 419 304.5 417 305.5 Q 415 306.5 412.5 308.5 Q 410 310.5 408 312 Q 406 313.5 407 311.5 Q 408 309.5 410 307.5 Q 412 305.5 414.5 302.5 Q 417 299.5 418 297.5 Q 419 295.5 417.5 297.5 Q 416 299.5 415 302.5 Q 414 305.5 414 307.5 Q 414 309.5 416 312.5 Q 418 315.5 422 316.5 Q 426 317.5 428.5 315.5 Q 431 313.5 433.5 311 Q 436 308.5 437.5 307 L 439.003 305.497" stroke-linecap="round" />
</g>
<g transform="matrix(1 0 0 1 625.61 180.82)"  >
<path style="stroke: rgb(128,128,128); stroke-width: 3; stroke-dasharray: none; stroke-linecap: round; stroke-dashoffset: 0; stroke-linejoin: round; stroke-miterlimit: 10; fill: none; fill-rule: nonzero; opacity: 1;"  transform=" translate(-625.61, -180.82)" d="M 611.997 178.503 Q 612 178.5 610.5 176.5 Q 609 174.5 611.5 172.5 Q 614 170.5 617.5 168.5 Q 621 166.5 625.5 165 Q 630 163.5 633 163 Q 636 162.5 638 163 Q 640 163.5 641 165.5 Q 642 167.5 641 170.5 Q 640 173.5 636 179 Q 632 184.5 627.5 189.5 Q 623 194.5 620 197 Q 617 199.5 620 198 L 623.003 196.497" stroke-linecap="round" />
</g>
</svg>