<?xml version="1.0" encoding="UTF-8" standalone="no" ?>
<!DOCTYPE svg PUBLIC "-//W3C//DTD SVG 1.1//EN" "http://www.w3.org/Graphics/SVG/1.1/DTD/svg11.dtd">
<svg xmlns="http://www.w3.org/2000/svg" xmlns:xlink="http://www.w3.org/1999/xlink" version="1.1" width="864" height="456" viewBox="0 0 864 456" xml:space="preserve">
<desc>Created with Fabric.js 4.3.1</desc>
<defs>
</defs>
<g transform="matrix(1 0 0 1 90.54 90.57)"  >
<path style="stroke: rgb(0,0,0); stroke-width: 3; stroke-dasharray: none; stroke-linecap: round; stroke-dashoffset: 0; stroke-linejoin: round; stroke-miterlimit: 10; fill: none; fill-rule: nonzero; opacity: 1;"  transform=" translate(-90.54, -90.56)" d="M 99.003 61.503 Q 99 61.5 97 59.5 Q 95 57.5 92.5 57 Q 90 56.5 88 57 Q 86 57.5 84 59.5 Q 82 61.5 80 65 Q 78 68.5 77 72.5 Q 76 76.5 77 80.5 Q 78 84.5 79.5 87 Q 81 89.5 83 90.5 Q 85 91.5 87 90 Q 89 88.5 89.5 86 Q 90 83.5 89.5 81 Q 89 78.5 88 76.5 Q 87 74.5 86.5 72.5 Q 86 70.5 86 73.5 Q 86 76.5 87.5 80 Q 89 83.5 90.5 88 Q 92 92.5 94 97 Q 96 101.5 98 105 Q 100 108.5 101.5 111 Q 103 113.5 104 116 Q 105 118.5 104.5 120.5 Q 104 122.5 101.5 123.5 Q 99 124.5 97 124.5 Q 95 124.5 92 124 Q 89 123.5 86 121.5 Q 83 119.5 80.5 117 L 77.997 114.497" stroke-linecap="round" />
</g>
<g transform="matrix(1 0 0 1 113.57 78.5)"  >
<path style="stroke: rgb(0,0,0); stroke-width: 3; stroke-dasharray: none; stroke-linecap: round; stroke-dashoffset: 0; stroke-linejoin: round; stroke-miterlimit: 10; fill: none; fill-rule: nonzero; opacity: 1;"  transform=" translate(-113.56, -78.5)" d="M 113.997 63.497 Q 114 63.5 113.5 68 Q 113 72.5 113.5 76.5 Q 114 80.5 114 84.5 Q 114 88.5 114 91 L 114 93.503" stroke-linecap="round" />
</g>
<g transform="matrix(1 0 0 1 116 51.5)"  >
<path style="stroke: rgb(0,0,0); stroke-width: 3; stroke-dasharray: none; stroke-linecap: round; stroke-dashoffset: 0; stroke-linejoin: round; stroke-miterlimit: 10; fill: none; fill-rule: nonzero; opacity: 1;"  transform=" translate(-116, -51.5)" d="M 115.997 51.5 L 116.003 51.5" stroke-linecap="round" />
</g>
<g transform="matrix(1 0 0 1 130.5 63.5)"  >
<path style="stroke: rgb(0,0,0); stroke-width: 3; stroke-dasharray: none; stroke-linecap: round; stroke-dashoffset: 0; stroke-linejoin: round; stroke-miterlimit: 10; fill: none; fill-rule: nonzero; opacity: 1;"  transform=" translate(-130.5, -63.5)" d="M 123.997 36.497 Q 124 36.5 125.5 41 Q 127 45.5 128 49.5 Q 129 53.5 130 59 Q 131 64.5 132.5 71 Q 134 77.5 134.5 82 Q 135 86.5 136 88.5 L 137.003 90.503" stroke-linecap="round" />
</g>
<g transform="matrix(1 0 0 1 142.86 66)"  >
<path style="stroke: rgb(0,0,0); stroke-width: 3; stroke-dasharray: none; stroke-linecap: round; stroke-dashoffset: 0; stroke-linejoin: round; stroke-miterlimit: 10; fill: none; fill-rule: nonzero; opacity: 1;"  transform=" translate(-142.87, -66)" d="M 131.003 74.5 Q 131 74.5 128.5 71.5 Q 126 68.5 123.5 68.5 Q 121 68.5 124.5 69.5 Q 128 70.5 133.5 69 Q 139 67.5 144.5 65 Q 150 62.5 154 61 Q 158 59.5 161 58.5 L 164.003 57.497" stroke-linecap="round" />
</g>
<g transform="matrix(1 0 0 1 134 72)"  >
<path style="stroke: rgb(0,0,0); stroke-width: 3; stroke-dasharray: none; stroke-linecap: round; stroke-dashoffset: 0; stroke-linejoin: round; stroke-miterlimit: 10; fill: none; fill-rule: nonzero; opacity: 1;"  transform=" translate(-134, -72)" d="M 174.003 13.5 Q 174 13.5 171.5 12.5 Q 169 11.5 165.5 11.5 Q 162 11.5 159 11.5 Q 156 11.5 153 11 Q 150 10.5 147.5 10 Q 145 9.5 142 8.5 Q 139 7.5 136 7.5 Q 133 7.5 130 7.5 Q 127 7.5 123.5 7.5 Q 120 7.5 116.5 8 Q 113 8.5 109 9 Q 105 9.5 101 10.5 Q 97 11.5 93 13 Q 89 14.5 85.5 16.5 Q 82 18.5 79 21.5 Q 76 24.5 73 28 Q 70 31.5 67.5 36 Q 65 40.5 63 45.5 Q 61 50.5 59.5 55.5 Q 58 60.5 57.5 65 Q 57 69.5 58 74.5 Q 59 79.5 60.5 85 Q 62 90.5 63.5 96.5 Q 65 102.5 67 107.5 Q 69 112.5 71 116.5 Q 73 120.5 76 123 Q 79 125.5 82.5 127 Q 86 128.5 90 129.5 Q 94 130.5 99.5 131 Q 105 131.5 110.5 132 Q 116 132.5 121 133.5 Q 126 134.5 132.5 135.5 Q 139 136.5 145 136.5 Q 151 136.5 156 136 Q 161 135.5 165.5 133.5 Q 170 131.5 174.5 128.5 Q 179 125.5 183.5 121 Q 188 116.5 192.5 110.5 Q 197 104.5 201 97.5 Q 205 90.5 207 84 Q 209 77.5 210 70.5 Q 211 63.5 210.5 57.5 Q 210 51.5 208.5 46 Q 207 40.5 204 36 Q 201 31.5 196 28.5 Q 191 25.5 185 23.5 Q 179 21.5 172 21 Q 165 20.5 160 20.5 L 154.997 20.5" stroke-linecap="round" />
</g>
<g transform="matrix(1 0 0 1 329.5 69)"  >
<path style="stroke: rgb(0,0,0); stroke-width: 3; stroke-dasharray: none; stroke-linecap: round; stroke-dashoffset: 0; stroke-linejoin: round; stroke-miterlimit: 10; fill: none; fill-rule: nonzero; opacity: 1;"  transform=" translate(-329.5, -69)" d="M 214.997 66.5 Q 215 66.5 218.5 67.5 Q 222 68.5 225 68.5 Q 228 68.5 232 68.5 Q 236 68.5 240 67.5 Q 244 66.5 249 66 Q 254 65.5 258.5 65.5 Q 263 65.5 267.5 65.5 Q 272 65.5 277 66 Q 282 66.5 287.5 66.5 Q 293 66.5 298 66.5 Q 303 66.5 308.5 67 Q 314 67.5 319.5 68 Q 325 68.5 330.5 69 Q 336 69.5 341.5 70 Q 347 70.5 353.5 70.5 Q 360 70.5 366.5 70.5 Q 373 70.5 380 70.5 Q 387 70.5 394.5 70 Q 402 69.5 408.5 69.5 Q 415 69.5 420.5 69 Q 426 68.5 431 68.5 Q 436 68.5 438.5 69 Q 441 69.5 442.5 71 L 444.003 72.503" stroke-linecap="round" />
</g>
<g transform="matrix(1 0 0 1 289 35.5)"  >
<path style="stroke: rgb(0,0,0); stroke-width: 3; stroke-dasharray: none; stroke-linecap: round; stroke-dashoffset: 0; stroke-linejoin: round; stroke-miterlimit: 10; fill: none; fill-rule: nonzero; opacity: 1;"  transform=" translate(-289, -35.5)" d="M 283.997 20.497 Q 284 20.5 288.5 33.5 Q 293 46.5 293.5 48.5 L 294.003 50.503" stroke-linecap="round" />
</g>
<g transform="matrix(1 0 0 1 288.5 16.5)"  >
<path style="stroke: rgb(0,0,0); stroke-width: 3; stroke-dasharray: none; stroke-linecap: round; stroke-dashoffset: 0; stroke-linejoin: round; stroke-miterlimit: 10; fill: none; fill-rule: nonzero; opacity: 1;"  transform=" translate(-288.5, -16.5)" d="M 290.997 17.5 Q 291 17.5 288.5 16.5 L 286.003 15.5" stroke-linecap="round" />
</g>
<g transform="matrix(1 0 0 1 313.98 36)"  >
<path style="stroke: rgb(0,0,0); stroke-width: 3; stroke-dasharray: none; stroke-linecap: round; stroke-dashoffset: 0; stroke-linejoin: round; stroke-miterlimit: 10; fill: none; fill-rule: nonzero; opacity: 1;"  transform=" translate(-313.97, -36)" d="M 320.003 24.497 Q 320 24.5 315.5 25.5 Q 311 26.5 308 27 Q 305 27.5 302.5 29 Q 300 30.5 299 33 Q 298 35.5 300.5 36 Q 303 36.5 307.5 36.5 Q 312 36.5 316.5 36.5 Q 321 36.5 324 36.5 Q 327 36.5 328.5 38.5 Q 330 40.5 328 42 Q 326 43.5 323.5 44.5 Q 321 45.5 318.5 46.5 L 315.997 47.503" stroke-linecap="round" />
</g>
<g transform="matrix(1 0 0 1 582.93 88.5)"  >
<path style="stroke: rgb(0,0,0); stroke-width: 3; stroke-dasharray: none; stroke-linecap: round; stroke-dashoffset: 0; stroke-linejoin: round; stroke-miterlimit: 10; fill: none; fill-rule: nonzero; opacity: 1;"  transform=" translate(-582.93, -88.5)" d="M 578.003 31.503 Q 578 31.5 570.5 24.5 Q 563 17.5 555 15 Q 547 12.5 540.5 13 Q 534 13.5 525.5 16 Q 517 18.5 509.5 22 Q 502 25.5 495 29.5 Q 488 33.5 481.5 38 Q 475 42.5 469.5 47.5 Q 464 52.5 460.5 56.5 Q 457 60.5 455 65 Q 453 69.5 452 76 Q 451 82.5 451.5 89 Q 452 95.5 455 103.5 Q 458 111.5 462.5 119.5 Q 467 127.5 473.5 134 Q 480 140.5 488 145.5 Q 496 150.5 506.5 154 Q 517 157.5 527.5 159.5 Q 538 161.5 549 162.5 Q 560 163.5 571.5 164 Q 583 164.5 594.5 162 Q 606 159.5 617.5 155.5 Q 629 151.5 640.5 146.5 Q 652 141.5 662.5 135.5 Q 673 129.5 682 122 Q 691 114.5 698 106.5 Q 705 98.5 709 91.5 Q 713 84.5 714 78 Q 715 71.5 713.5 65 Q 712 58.5 707 53.5 Q 702 48.5 695 43.5 Q 688 38.5 679.5 35 Q 671 31.5 660.5 28.5 Q 650 25.5 638 23.5 Q 626 21.5 612.5 20 Q 599 18.5 586 18 Q 573 17.5 562 17 Q 551 16.5 542 16.5 L 532.997 16.5" stroke-linecap="round" />
</g>
<g transform="matrix(1 0 0 1 515.42 79.02)"  >
<path style="stroke: rgb(0,0,0); stroke-width: 3; stroke-dasharray: none; stroke-linecap: round; stroke-dashoffset: 0; stroke-linejoin: round; stroke-miterlimit: 10; fill: none; fill-rule: nonzero; opacity: 1;"  transform=" translate(-515.41, -79.03)" d="M 489.997 64.497 Q 490 64.5 491.5 69.5 Q 493 74.5 494.5 79 Q 496 83.5 497 86 Q 498 88.5 499.5 92.5 Q 501 96.5 503 97.5 Q 505 98.5 507.5 98 Q 510 97.5 513 94 Q 516 90.5 518 86.5 Q 520 82.5 521.5 78 Q 523 73.5 523.5 69.5 Q 524 65.5 523 70 Q 522 74.5 522.5 78.5 Q 523 82.5 525 84.5 Q 527 86.5 529.5 86.5 Q 532 86.5 534.5 84.5 Q 537 82.5 538.5 79.5 Q 540 76.5 540.5 73.5 Q 541 70.5 540 67.5 Q 539 64.5 537 62.5 Q 535 60.5 533 60 Q 531 59.5 529.5 61.5 Q 528 63.5 526.5 68.5 Q 525 73.5 524.5 78.5 Q 524 83.5 525 86.5 L 526.003 89.503" stroke-linecap="round" />
</g>
<g transform="matrix(1 0 0 1 557 79.63)"  >
<path style="stroke: rgb(0,0,0); stroke-width: 3; stroke-dasharray: none; stroke-linecap: round; stroke-dashoffset: 0; stroke-linejoin: round; stroke-miterlimit: 10; fill: none; fill-rule: nonzero; opacity: 1;"  transform=" translate(-557, -79.63)" d="M 553 70.497 Q 553 70.5 553 67 Q 553 63.5 553 68 Q 553 72.5 553.5 77.5 Q 554 82.5 554 87.5 Q 554 92.5 554 95 Q 554 97.5 553.5 94 Q 553 90.5 553 86.5 Q 553 82.5 553.5 78 Q 554 73.5 555.5 69.5 Q 557 65.5 559 64 L 561.003 62.497" stroke-linecap="round" />
</g>
<g transform="matrix(1 0 0 1 582.38 75.5)"  >
<path style="stroke: rgb(0,0,0); stroke-width: 3; stroke-dasharray: none; stroke-linecap: round; stroke-dashoffset: 0; stroke-linejoin: round; stroke-miterlimit: 10; fill: none; fill-rule: nonzero; opacity: 1;"  transform=" translate(-582.38, -75.5)" d="M 590.003 66.5 Q 590 66.5 588.5 64.5 Q 587 62.5 583 62.5 Q 579 62.5 577 64 Q 575 65.5 573.5 67 Q 572 68.5 571.5 71.5 Q 571 74.5 573.5 75.5 Q 576 76.5 579.5 76.5 Q 583 76.5 586 77 Q 589 77.5 591.5 78 Q 594 78.5 592.5 81 Q 591 83.5 588 85 Q 585 86.5 582 87.5 Q 579 88.5 577 88.5 L 574.997 88.5" stroke-linecap="round" />
</g>
<g transform="matrix(1 0 0 1 604 71)"  >
<path style="stroke: rgb(0,0,0); stroke-width: 3; stroke-dasharray: none; stroke-linecap: round; stroke-dashoffset: 0; stroke-linejoin: round; stroke-miterlimit: 10; fill: none; fill-rule: nonzero; opacity: 1;"  transform=" translate(-604, -71)" d="M 603 62.497 Q 603 62.5 604 66.5 Q 605 70.5 605 72.5 Q 605 74.5 604.5 77 L 603.997 79.503" stroke-linecap="round" />
</g>
<g transform="matrix(1 0 0 1 613 61.5)"  >
<path style="stroke: rgb(0,0,0); stroke-width: 3; stroke-dasharray: none; stroke-linecap: round; stroke-dashoffset: 0; stroke-linejoin: round; stroke-miterlimit: 10; fill: none; fill-rule: nonzero; opacity: 1;"  transform=" translate(-613, -61.5)" d="M 612.997 61.5 L 613.003 61.5" stroke-linecap="round" />
</g>
<g transform="matrix(1 0 0 1 635.59 72.46)"  >
<path style="stroke: rgb(0,0,0); stroke-width: 3; stroke-dasharray: none; stroke-linecap: round; stroke-dashoffset: 0; stroke-linejoin: round; stroke-miterlimit: 10; fill: none; fill-rule: nonzero; opacity: 1;"  transform=" translate(-635.59, -72.46)" d="M 633.003 67.503 Q 633 67.5 630.5 65 Q 628 62.5 624.5 62 Q 621 61.5 618.5 62.5 Q 616 63.5 614 66 Q 612 68.5 611.5 72 Q 611 75.5 612 77.5 Q 613 79.5 615.5 80 Q 618 80.5 620.5 80 Q 623 79.5 625.5 78 Q 628 76.5 630.5 75 Q 633 73.5 634.5 72 Q 636 70.5 636.5 68.5 Q 637 66.5 634.5 69 Q 632 71.5 634 69.5 Q 636 67.5 638 65.5 Q 640 63.5 641.5 62 Q 643 60.5 645 62.5 Q 647 64.5 646.5 67.5 Q 646 70.5 645.5 74 Q 645 77.5 645.5 79.5 Q 646 81.5 648 83 Q 650 84.5 653.5 81.5 Q 657 78.5 658.5 76.5 L 660.003 74.497" stroke-linecap="round" />
</g>
<g transform="matrix(1 0 0 1 530.13 121.22)"  >
<path style="stroke: rgb(0,0,0); stroke-width: 3; stroke-dasharray: none; stroke-linecap: round; stroke-dashoffset: 0; stroke-linejoin: round; stroke-miterlimit: 10; fill: none; fill-rule: nonzero; opacity: 1;"  transform=" translate(-530.13, -121.22)" d="M 543.003 110.497 Q 543 110.5 535 109.5 Q 527 108.5 524 112.5 Q 521 116.5 519.5 120 Q 518 123.5 517.5 128 Q 517 132.5 520.5 133 Q 524 133.5 528.5 133.5 L 533.003 133.5" stroke-linecap="round" />
</g>
<g transform="matrix(1 0 0 1 567.58 121.59)"  >
<path style="stroke: rgb(0,0,0); stroke-width: 3; stroke-dasharray: none; stroke-linecap: round; stroke-dashoffset: 0; stroke-linejoin: round; stroke-miterlimit: 10; fill: none; fill-rule: nonzero; opacity: 1;"  transform=" translate(-567.59, -121.59)" d="M 568.003 113.503 Q 568 113.5 568.5 111.5 Q 569 109.5 565.5 109 Q 562 108.5 559 109.5 Q 556 110.5 553.5 112 Q 551 113.5 549 115.5 Q 547 117.5 546 120 Q 545 122.5 545.5 125 Q 546 127.5 547.5 129 Q 549 130.5 551 130.5 Q 553 130.5 555 129.5 Q 557 128.5 559 126 Q 561 123.5 562.5 120.5 Q 564 117.5 565.5 115 Q 567 112.5 569 110.5 Q 571 108.5 571.5 112 Q 572 115.5 572 118.5 Q 572 121.5 571.5 125 Q 571 128.5 570.5 130.5 Q 570 132.5 571.5 128.5 Q 573 124.5 575 121.5 Q 577 118.5 579 115.5 Q 581 112.5 582.5 111 Q 584 109.5 586.5 113 Q 589 116.5 589.5 121 Q 590 125.5 590 130 L 590 134.503" stroke-linecap="round" />
</g>
<g transform="matrix(1 0 0 1 599.5 119.5)"  >
<path style="stroke: rgb(0,0,0); stroke-width: 3; stroke-dasharray: none; stroke-linecap: round; stroke-dashoffset: 0; stroke-linejoin: round; stroke-miterlimit: 10; fill: none; fill-rule: nonzero; opacity: 1;"  transform=" translate(-599.5, -119.5)" d="M 597.997 99.497 Q 598 99.5 598.5 103 Q 599 106.5 599.5 110 Q 600 113.5 600 119 Q 600 124.5 600.5 129.5 Q 601 134.5 601 137 L 601 139.503" stroke-linecap="round" />
</g>
<g transform="matrix(1 0 0 1 597 117.82)"  >
<path style="stroke: rgb(0,0,0); stroke-width: 3; stroke-dasharray: none; stroke-linecap: round; stroke-dashoffset: 0; stroke-linejoin: round; stroke-miterlimit: 10; fill: none; fill-rule: nonzero; opacity: 1;"  transform=" translate(-597, -117.81)" d="M 589.997 120.503 Q 590 120.5 590 117.5 Q 590 114.5 592 112 Q 594 109.5 596 112 Q 598 114.5 599.5 117 Q 601 119.5 602.5 122.5 L 604.003 125.503" stroke-linecap="round" />
</g>
<g transform="matrix(1 0 0 1 605.5 123)"  >
<path style="stroke: rgb(0,0,0); stroke-width: 3; stroke-dasharray: none; stroke-linecap: round; stroke-dashoffset: 0; stroke-linejoin: round; stroke-miterlimit: 10; fill: none; fill-rule: nonzero; opacity: 1;"  transform=" translate(-605.5, -123)" d="M 610.003 135.503 Q 610 135.5 608 135 Q 606 134.5 605 132.5 Q 604 130.5 602.5 127.5 Q 601 124.5 601 121.5 Q 601 118.5 601.5 116 Q 602 113.5 604 112 Q 606 110.5 608 110.5 L 610.003 110.5" stroke-linecap="round" />
</g>
<g transform="matrix(1 0 0 1 621.9 116.12)"  >
<path style="stroke: rgb(0,0,0); stroke-width: 3; stroke-dasharray: none; stroke-linecap: round; stroke-dashoffset: 0; stroke-linejoin: round; stroke-miterlimit: 10; fill: none; fill-rule: nonzero; opacity: 1;"  transform=" translate(-621.9, -116.12)" d="M 630.003 115.503 Q 630 115.5 628 114 Q 626 112.5 624 112 Q 622 111.5 619.5 111.5 Q 617 111.5 614.5 113.5 Q 612 115.5 610.5 119 Q 609 122.5 609 125 Q 609 127.5 610.5 129 Q 612 130.5 614 130 Q 616 129.5 618.5 127 Q 621 124.5 623.5 122 Q 626 119.5 627.5 117 Q 629 114.5 630 110.5 Q 631 106.5 631.5 102.5 Q 632 98.5 633 95 Q 634 91.5 634.5 99 Q 635 106.5 633.5 113 Q 632 119.5 631 126 Q 630 132.5 629.5 136 L 628.997 139.503" stroke-linecap="round" />
</g>
<g transform="matrix(1 0 0 1 186.07 189)"  >
<path style="stroke: rgb(0,0,0); stroke-width: 3; stroke-dasharray: none; stroke-linecap: round; stroke-dashoffset: 0; stroke-linejoin: round; stroke-miterlimit: 10; fill: none; fill-rule: nonzero; opacity: 1;"  transform=" translate(-186.06, -189)" d="M 169.003 130.497 Q 169 130.5 167 134 Q 165 137.5 164.5 141 Q 164 144.5 164.5 147 Q 165 149.5 166.5 154.5 Q 168 159.5 170 164 Q 172 168.5 174 173.5 Q 176 178.5 178 185 Q 180 191.5 182.5 198 Q 185 204.5 187.5 210 Q 190 215.5 193 220.5 Q 196 225.5 198.5 229 Q 201 232.5 202.5 235.5 Q 204 238.5 205.5 241 Q 207 243.5 207.5 245.5 L 208.003 247.503" stroke-linecap="round" />
</g>
<g transform="matrix(1 0 0 1 171.63 336.9)"  >
<path style="stroke: rgb(0,0,0); stroke-width: 3; stroke-dasharray: none; stroke-linecap: round; stroke-dashoffset: 0; stroke-linejoin: round; stroke-miterlimit: 10; fill: none; fill-rule: nonzero; opacity: 1;"  transform=" translate(-171.63, -336.9)" d="M 186.003 298.497 Q 186 298.5 175 304 Q 164 309.5 163.5 311.5 Q 163 313.5 162.5 318 Q 162 322.5 162.5 327 Q 163 331.5 164.5 335 Q 166 338.5 168 341.5 Q 170 344.5 172 348.5 Q 174 352.5 175 356 Q 176 359.5 175.5 362.5 Q 175 365.5 173.5 368 Q 172 370.5 170 372.5 Q 168 374.5 166 375 Q 164 375.5 161.5 374 Q 159 372.5 158 369 Q 157 365.5 158 362 Q 159 358.5 161 355.5 Q 163 352.5 165.5 350 Q 168 347.5 170 346 Q 172 344.5 174 344 Q 176 343.5 178 343.5 L 180.003 343.5" stroke-linecap="round" />
</g>
<g transform="matrix(1 0 0 1 195 360)"  >
<path style="stroke: rgb(0,0,0); stroke-width: 3; stroke-dasharray: none; stroke-linecap: round; stroke-dashoffset: 0; stroke-linejoin: round; stroke-miterlimit: 10; fill: none; fill-rule: nonzero; opacity: 1;"  transform=" translate(-195, -360)" d="M 192.997 347.497 Q 193 347.5 194 352 Q 195 356.5 196 360.5 Q 197 364.5 197 366.5 Q 197 368.5 197 370.5 L 197 372.503" stroke-linecap="round" />
</g>
<g transform="matrix(1 0 0 1 201 308.5)"  >
<path style="stroke: rgb(0,0,0); stroke-width: 3; stroke-dasharray: none; stroke-linecap: round; stroke-dashoffset: 0; stroke-linejoin: round; stroke-miterlimit: 10; fill: none; fill-rule: nonzero; opacity: 1;"  transform=" translate(-201, -308.5)" d="M 200.997 308.5 L 201.003 308.5" stroke-linecap="round" />
</g>
<g transform="matrix(1 0 0 1 210.5 334)"  >
<path style="stroke: rgb(0,0,0); stroke-width: 3; stroke-dasharray: none; stroke-linecap: round; stroke-dashoffset: 0; stroke-linejoin: round; stroke-miterlimit: 10; fill: none; fill-rule: nonzero; opacity: 1;"  transform=" translate(-210.5, -334)" d="M 201.997 307.497 Q 202 307.5 203.5 309 Q 205 310.5 206.5 313.5 Q 208 316.5 209 321.5 Q 210 326.5 211.5 332 Q 213 337.5 215 344.5 Q 217 351.5 218 356 L 219.003 360.503" stroke-linecap="round" />
</g>
<g transform="matrix(1 0 0 1 242.5 345.75)"  >
<path style="stroke: rgb(0,0,0); stroke-width: 3; stroke-dasharray: none; stroke-linecap: round; stroke-dashoffset: 0; stroke-linejoin: round; stroke-miterlimit: 10; fill: none; fill-rule: nonzero; opacity: 1;"  transform=" translate(-242.5, -345.75)" d="M 225.997 333.497 Q 226 333.5 226.5 336.5 Q 227 339.5 227.5 342.5 Q 228 345.5 228.5 348 Q 229 350.5 232 351 Q 235 351.5 237 349.5 Q 239 347.5 241 345 Q 243 342.5 243.5 340 Q 244 337.5 244 335.5 Q 244 333.5 242 331.5 Q 240 329.5 239.5 331.5 Q 239 333.5 239 337.5 Q 239 341.5 239.5 346 Q 240 350.5 241.5 353.5 Q 243 356.5 245 358 Q 247 359.5 249 360.5 Q 251 361.5 253 361.5 Q 255 361.5 257 361 L 259.003 360.497" stroke-linecap="round" />
</g>
<g transform="matrix(1 0 0 1 226.04 398.44)"  >
<path style="stroke: rgb(0,0,0); stroke-width: 3; stroke-dasharray: none; stroke-linecap: round; stroke-dashoffset: 0; stroke-linejoin: round; stroke-miterlimit: 10; fill: none; fill-rule: nonzero; opacity: 1;"  transform=" translate(-226.04, -398.44)" d="M 229.003 383.497 Q 229 383.5 220 388.5 Q 211 393.5 210 396.5 Q 209 399.5 213.5 400 Q 218 400.5 221.5 399.5 Q 225 398.5 229.5 398.5 Q 234 398.5 237 399 Q 240 399.5 241.5 401 Q 243 402.5 241.5 406 Q 240 409.5 237.5 411 Q 235 412.5 232 413 Q 229 413.5 226 413 L 222.997 412.497" stroke-linecap="round" />
</g>
<g transform="matrix(1 0 0 1 247 394)"  >
<path style="stroke: rgb(0,0,0); stroke-width: 3; stroke-dasharray: none; stroke-linecap: round; stroke-dashoffset: 0; stroke-linejoin: round; stroke-miterlimit: 10; fill: none; fill-rule: nonzero; opacity: 1;"  transform=" translate(-247, -394)" d="M 237.997 383.497 Q 238 383.5 241 385 Q 244 386.5 246.5 389 Q 249 391.5 251 395 Q 253 398.5 254.5 401.5 L 256.003 404.503" stroke-linecap="round" />
</g>
<g transform="matrix(1 0 0 1 270 392.5)"  >
<path style="stroke: rgb(0,0,0); stroke-width: 3; stroke-dasharray: none; stroke-linecap: round; stroke-dashoffset: 0; stroke-linejoin: round; stroke-miterlimit: 10; fill: none; fill-rule: nonzero; opacity: 1;"  transform=" translate(-270, -392.5)" d="M 268.997 375.497 Q 269 375.5 269.5 377.5 Q 270 379.5 270.5 385.5 Q 271 391.5 271 396.5 Q 271 401.5 271 405.5 L 271 409.503" stroke-linecap="round" />
</g>
<g transform="matrix(1 0 0 1 294.71 377)"  >
<path style="stroke: rgb(0,0,0); stroke-width: 3; stroke-dasharray: none; stroke-linecap: round; stroke-dashoffset: 0; stroke-linejoin: round; stroke-miterlimit: 10; fill: none; fill-rule: nonzero; opacity: 1;"  transform=" translate(-294.71, -377)" d="M 301.003 362.497 Q 301 362.5 298 362.5 Q 295 362.5 291.5 364 Q 288 365.5 285.5 368 Q 283 370.5 282 373.5 Q 281 376.5 284.5 377 Q 288 377.5 292 377 Q 296 376.5 299 377 Q 302 377.5 304 378.5 Q 306 379.5 307 381.5 Q 308 383.5 308 385.5 Q 308 387.5 307 389.5 L 305.997 391.503" stroke-linecap="round" />
</g>
<g transform="matrix(1 0 0 1 317.5 361)"  >
<path style="stroke: rgb(0,0,0); stroke-width: 3; stroke-dasharray: none; stroke-linecap: round; stroke-dashoffset: 0; stroke-linejoin: round; stroke-miterlimit: 10; fill: none; fill-rule: nonzero; opacity: 1;"  transform=" translate(-317.5, -361)" d="M 312.997 335.497 Q 313 335.5 315.5 342 Q 318 348.5 319 352.5 Q 320 356.5 321 362 Q 322 367.5 322 373 Q 322 378.5 321.5 382.5 L 320.997 386.503" stroke-linecap="round" />
</g>
<g transform="matrix(1 0 0 1 324.5 366)"  >
<path style="stroke: rgb(0,0,0); stroke-width: 3; stroke-dasharray: none; stroke-linecap: round; stroke-dashoffset: 0; stroke-linejoin: round; stroke-miterlimit: 10; fill: none; fill-rule: nonzero; opacity: 1;"  transform=" translate(-324.5, -366)" d="M 311.997 367.503 Q 312 367.5 315 367.5 Q 318 367.5 321 367 Q 324 366.5 327.5 366.5 Q 331 366.5 334 365.5 L 337.003 364.497" stroke-linecap="round" />
</g>
<g transform="matrix(1 0 0 1 343.78 369)"  >
<path style="stroke: rgb(0,0,0); stroke-width: 3; stroke-dasharray: none; stroke-linecap: round; stroke-dashoffset: 0; stroke-linejoin: round; stroke-miterlimit: 10; fill: none; fill-rule: nonzero; opacity: 1;"  transform=" translate(-343.78, -369)" d="M 349.003 355.503 Q 349 355.5 350 357.5 Q 351 359.5 347 358 Q 343 356.5 341 357.5 Q 339 358.5 338 360.5 Q 337 362.5 337 366 Q 337 369.5 337.5 373.5 Q 338 377.5 339 380 L 340.003 382.503" stroke-linecap="round" />
</g>
<g transform="matrix(1 0 0 1 397 353.35)"  >
<path style="stroke: rgb(0,0,0); stroke-width: 3; stroke-dasharray: none; stroke-linecap: round; stroke-dashoffset: 0; stroke-linejoin: round; stroke-miterlimit: 10; fill: none; fill-rule: nonzero; opacity: 1;"  transform=" translate(-397, -353.36)" d="M 367.997 351.497 Q 368 351.5 367.5 354 Q 367 356.5 367.5 359.5 Q 368 362.5 368.5 365 Q 369 367.5 370 369.5 Q 371 371.5 369.5 369 Q 368 366.5 367.5 363 Q 367 359.5 367 355 Q 367 350.5 368.5 347 Q 370 343.5 372.5 343 Q 375 342.5 377.5 345 Q 380 347.5 381.5 350 Q 383 352.5 383.5 354.5 Q 384 356.5 384 354.5 Q 384 352.5 386.5 348 Q 389 343.5 392 340 Q 395 336.5 397.5 336 Q 400 335.5 402.5 339.5 Q 405 343.5 407 350 Q 409 356.5 412 360.5 Q 415 364.5 418 366.5 Q 421 368.5 424 367 L 427.003 365.497" stroke-linecap="round" />
</g>
<g transform="matrix(1 0 0 1.87 279.5 409.25)"  >
<path style="stroke: rgb(0,0,0); stroke-width: 3; stroke-dasharray: none; stroke-linecap: round; stroke-dashoffset: 0; stroke-linejoin: round; stroke-miterlimit: 10; fill: none; fill-rule: nonzero; opacity: 1;"  transform=" translate(-291.5, -342)" d="M 287.003 257.503 Q 287 257.5 275.5 254 Q 264 250.5 259.5 250 Q 255 249.5 251.5 249.5 Q 248 249.5 240.5 251 Q 233 252.5 226 254 Q 219 255.5 212 257.5 Q 205 259.5 199 261.5 Q 193 263.5 186 267.5 Q 179 271.5 172.5 276 Q 166 280.5 161 286 Q 156 291.5 151.5 296.5 Q 147 301.5 144 306.5 Q 141 311.5 139 316.5 Q 137 321.5 134.5 326 Q 132 330.5 130 336 Q 128 341.5 127 346.5 Q 126 351.5 126 355.5 Q 126 359.5 127.5 362.5 Q 129 365.5 131 368.5 Q 133 371.5 135.5 374.5 Q 138 377.5 140.5 380 Q 143 382.5 146.5 386 Q 150 389.5 154 393 Q 158 396.5 162 399.5 Q 166 402.5 170 405.5 Q 174 408.5 178.5 410.5 Q 183 412.5 188 414 Q 193 415.5 198 416.5 Q 203 417.5 208.5 419 Q 214 420.5 218.5 422 Q 223 423.5 227.5 425.5 Q 232 427.5 236.5 428 Q 241 428.5 245.5 429 Q 250 429.5 255 429.5 Q 260 429.5 264.5 429.5 Q 269 429.5 273 430.5 Q 277 431.5 281.5 432.5 Q 286 433.5 290 434 Q 294 434.5 298.5 434.5 Q 303 434.5 307.5 434 Q 312 433.5 317.5 432.5 Q 323 431.5 328.5 430.5 Q 334 429.5 340 428.5 Q 346 427.5 352.5 426.5 Q 359 425.5 365.5 424 Q 372 422.5 378.5 420.5 Q 385 418.5 391.5 415.5 Q 398 412.5 404 409 Q 410 405.5 416 401 Q 422 396.5 427 392 Q 432 387.5 435.5 383 Q 439 378.5 442.5 373.5 Q 446 368.5 448.5 363 Q 451 357.5 452.5 351.5 Q 454 345.5 455.5 340 Q 457 334.5 457 330 Q 457 325.5 456 322 Q 455 318.5 453 315 Q 451 311.5 449 308.5 Q 447 305.5 444 302.5 Q 441 299.5 438 297.5 Q 435 295.5 431.5 294 Q 428 292.5 425 291.5 Q 422 290.5 417 289 Q 412 287.5 408 285.5 Q 404 283.5 400.5 281.5 Q 397 279.5 393.5 276.5 Q 390 273.5 387.5 271 Q 385 268.5 382.5 266.5 Q 380 264.5 376.5 262 Q 373 259.5 369.5 258 Q 366 256.5 362 255.5 Q 358 254.5 354 253.5 Q 350 252.5 346.5 252 Q 343 251.5 338.5 251.5 Q 334 251.5 329 252.5 Q 324 253.5 318.5 255 Q 313 256.5 307.5 258.5 Q 302 260.5 297 261.5 Q 292 262.5 287.5 263.5 Q 283 264.5 279.5 265 Q 276 265.5 273 266.5 Q 270 267.5 268 268 Q 266 268.5 264 269 Q 262 269.5 260 269.5 L 257.997 269.5" stroke-linecap="round" />
</g>
<g transform="matrix(1 0 0 1 200.57 181.5)"  >
<path style="stroke: rgb(0,0,0); stroke-width: 3; stroke-dasharray: none; stroke-linecap: round; stroke-dashoffset: 0; stroke-linejoin: round; stroke-miterlimit: 10; fill: none; fill-rule: nonzero; opacity: 1;"  transform=" translate(-200.56, -181.5)" d="M 204.003 167.497 Q 204 167.5 201 170 Q 198 172.5 197.5 176 Q 197 179.5 197.5 183 Q 198 186.5 199 189 Q 200 191.5 201 193.5 L 202.003 195.503" stroke-linecap="round" />
</g>
<g transform="matrix(1 0 0 1 195.5 155)"  >
<path style="stroke: rgb(0,0,0); stroke-width: 3; stroke-dasharray: none; stroke-linecap: round; stroke-dashoffset: 0; stroke-linejoin: round; stroke-miterlimit: 10; fill: none; fill-rule: nonzero; opacity: 1;"  transform=" translate(-195.5, -155)" d="M 193.997 156.5 Q 194 156.5 195.5 155 L 197.003 153.5" stroke-linecap="round" />
</g>
<g transform="matrix(1 0 0 1 220.13 182.5)"  >
<path style="stroke: rgb(0,0,0); stroke-width: 3; stroke-dasharray: none; stroke-linecap: round; stroke-dashoffset: 0; stroke-linejoin: round; stroke-miterlimit: 10; fill: none; fill-rule: nonzero; opacity: 1;"  transform=" translate(-220.13, -182.5)" d="M 232.003 161.497 Q 232 161.5 229 162 Q 226 162.5 224 164 Q 222 165.5 218 168 Q 214 170.5 211.5 173 Q 209 175.5 208.5 178 Q 208 180.5 211 180.5 Q 214 180.5 217 180.5 Q 220 180.5 223 180.5 Q 226 180.5 228 181 Q 230 181.5 230.5 185.5 Q 231 189.5 228.5 193 Q 226 196.5 222.5 200 L 218.997 203.503" stroke-linecap="round" />
</g>
</svg>