<?xml version="1.0" encoding="UTF-8" standalone="no" ?>
<!DOCTYPE svg PUBLIC "-//W3C//DTD SVG 1.1//EN" "http://www.w3.org/Graphics/SVG/1.1/DTD/svg11.dtd">
<svg xmlns="http://www.w3.org/2000/svg" xmlns:xlink="http://www.w3.org/1999/xlink" version="1.1" width="864" height="456" viewBox="0 0 864 456" xml:space="preserve">
<desc>Created with Fabric.js 4.3.1</desc>
<defs>
</defs>
<g transform="matrix(1 0 0 1 155.98 102.57)"  >
<path style="stroke: rgb(0,0,0); stroke-width: 3; stroke-dasharray: none; stroke-linecap: round; stroke-dashoffset: 0; stroke-linejoin: round; stroke-miterlimit: 10; fill: none; fill-rule: nonzero; opacity: 1;"  transform=" translate(-155.98, -102.56)" d="M 165.003 58.503 Q 165 58.5 165 56 Q 165 53.5 163 53 Q 161 52.5 158.5 53 Q 156 53.5 153 54.5 Q 150 55.5 147.5 56 Q 145 56.5 141.5 57 Q 138 57.5 135 58.5 Q 132 59.5 128.5 61 Q 125 62.5 122.5 64.5 Q 120 66.5 118 69 Q 116 71.5 114 73.5 Q 112 75.5 110 78.5 Q 108 81.5 106.5 84 Q 105 86.5 103.5 90 Q 102 93.5 101.5 97 Q 101 100.5 100.5 104 Q 100 107.5 100.5 111.5 Q 101 115.5 102 119.5 Q 103 123.5 104 127.5 Q 105 131.5 107 134.5 Q 109 137.5 111.5 139.5 Q 114 141.5 116.5 143.5 Q 119 145.5 122 147 Q 125 148.5 128 150 Q 131 151.5 134 152 Q 137 152.5 141 152.5 Q 145 152.5 149.5 151 Q 154 149.5 158 148 Q 162 146.5 166 145 Q 170 143.5 174 141.5 Q 178 139.5 181.5 137 Q 185 134.5 188.5 132 Q 192 129.5 194.5 126.5 Q 197 123.5 200 120.5 Q 203 117.5 205 114.5 Q 207 111.5 208.5 108 Q 210 104.5 210.5 101 Q 211 97.5 211.5 94 Q 212 90.5 211 87 Q 210 83.5 208.5 80 Q 207 76.5 205.5 73 Q 204 69.5 202 67 Q 200 64.5 197 63 Q 194 61.5 190.5 60.5 Q 187 59.5 183 59 Q 179 58.5 175 57.5 Q 171 56.5 167.5 55.5 Q 164 54.5 160.5 54.5 Q 157 54.5 154 54.5 Q 151 54.5 148.5 55.5 L 145.997 56.503" stroke-linecap="round" />
</g>
<g transform="matrix(1 0 0 1 154 104)"  >
<path style="stroke: rgb(0,0,0); stroke-width: 3; stroke-dasharray: none; stroke-linecap: round; stroke-dashoffset: 0; stroke-linejoin: round; stroke-miterlimit: 10; fill: none; fill-rule: nonzero; opacity: 1;"  transform=" translate(-154, -104)" d="M 149.003 125.503 Q 149 125.5 146 117.5 Q 143 109.5 141 106 Q 139 102.5 138 100 Q 137 97.5 137 94.5 Q 137 91.5 138 89.5 Q 139 87.5 140.5 86 Q 142 84.5 144 83.5 Q 146 82.5 148 82.5 Q 150 82.5 152.5 82.5 Q 155 82.5 157.5 84 Q 160 85.5 162 88 Q 164 90.5 166 93.5 Q 168 96.5 169.5 100.5 Q 171 104.5 171 108 Q 171 111.5 170.5 114 L 169.997 116.503" stroke-linecap="round" />
</g>
<g transform="matrix(1 0 0 1 156 107)"  >
<path style="stroke: rgb(0,0,0); stroke-width: 3; stroke-dasharray: none; stroke-linecap: round; stroke-dashoffset: 0; stroke-linejoin: round; stroke-miterlimit: 10; fill: none; fill-rule: nonzero; opacity: 1;"  transform=" translate(-156, -107)" d="M 139.997 118.503 Q 140 118.5 142 117.5 Q 144 116.5 147 114.5 Q 150 112.5 154.5 109.5 Q 159 106.5 163 103.5 Q 167 100.5 169.5 98 L 172.003 95.497" stroke-linecap="round" />
</g>
<g transform="matrix(1 0 0 1 410.46 93.9)"  >
<path style="stroke: rgb(0,0,0); stroke-width: 3; stroke-dasharray: none; stroke-linecap: round; stroke-dashoffset: 0; stroke-linejoin: round; stroke-miterlimit: 10; fill: none; fill-rule: nonzero; opacity: 1;"  transform=" translate(-410.46, -93.9)" d="M 418.003 55.497 Q 418 55.5 400.5 58 Q 383 60.5 379.5 62.5 Q 376 64.5 373.5 66.5 Q 371 68.5 368.5 71.5 Q 366 74.5 365 78 Q 364 81.5 364.5 85.5 Q 365 89.5 367 94.5 Q 369 99.5 372 104 Q 375 108.5 379 113 Q 383 117.5 387.5 121.5 Q 392 125.5 397.5 128.5 Q 403 131.5 407.5 132 Q 412 132.5 417.5 131 Q 423 129.5 428.5 126 Q 434 122.5 438.5 118 Q 443 113.5 447 108.5 Q 451 103.5 453 99 Q 455 94.5 456 91 Q 457 87.5 456 84.5 Q 455 81.5 452 79 Q 449 76.5 444.5 75 Q 440 73.5 434.5 73 Q 429 72.5 423.5 73.5 Q 418 74.5 414.5 75.5 L 410.997 76.503" stroke-linecap="round" />
</g>
<g transform="matrix(1 0 0 1 393.5 106.5)"  >
<path style="stroke: rgb(0,0,0); stroke-width: 3; stroke-dasharray: none; stroke-linecap: round; stroke-dashoffset: 0; stroke-linejoin: round; stroke-miterlimit: 10; fill: none; fill-rule: nonzero; opacity: 1;"  transform=" translate(-393.5, -106.5)" d="M 387.997 94.497 Q 388 94.5 390 95.5 Q 392 96.5 393.5 100.5 Q 395 104.5 395.5 107 Q 396 109.5 397 112 Q 398 114.5 398.5 116.5 L 399.003 118.503" stroke-linecap="round" />
</g>
<g transform="matrix(1 0 0 1 404.85 95)"  >
<path style="stroke: rgb(0,0,0); stroke-width: 3; stroke-dasharray: none; stroke-linecap: round; stroke-dashoffset: 0; stroke-linejoin: round; stroke-miterlimit: 10; fill: none; fill-rule: nonzero; opacity: 1;"  transform=" translate(-404.85, -95)" d="M 385.997 88.503 Q 386 88.5 388.5 86.5 Q 391 84.5 393 83 Q 395 81.5 397 80.5 Q 399 79.5 401 78.5 Q 403 77.5 405 77.5 Q 407 77.5 407.5 80.5 Q 408 83.5 407.5 85.5 Q 407 87.5 406.5 89.5 Q 406 91.5 409.5 92 Q 413 92.5 415 92.5 Q 417 92.5 419 92.5 Q 421 92.5 422.5 95.5 Q 424 98.5 423 101 Q 422 103.5 420.5 105 Q 419 106.5 417.5 108.5 Q 416 110.5 414 111.5 L 411.997 112.503" stroke-linecap="round" />
</g>
<g transform="matrix(1 0 0 1 261 342.41)"  >
<path style="stroke: rgb(0,0,0); stroke-width: 3; stroke-dasharray: none; stroke-linecap: round; stroke-dashoffset: 0; stroke-linejoin: round; stroke-miterlimit: 10; fill: none; fill-rule: nonzero; opacity: 1;"  transform=" translate(-261, -342.41)" d="M 275.003 307.503 Q 275 307.5 267.5 301 Q 260 294.5 256 293 Q 252 291.5 249.5 291.5 Q 247 291.5 243.5 292 Q 240 292.5 237 294 Q 234 295.5 231.5 297.5 Q 229 299.5 226 302.5 Q 223 305.5 220.5 309 Q 218 312.5 216 317 Q 214 321.5 213 326 Q 212 330.5 211.5 336 Q 211 341.5 211 347 Q 211 352.5 212 357 Q 213 361.5 214.5 365.5 Q 216 369.5 218 373.5 Q 220 377.5 222.5 380.5 Q 225 383.5 227.5 386 Q 230 388.5 234 391 Q 238 393.5 242.5 395 Q 247 396.5 251 397 Q 255 397.5 259.5 396.5 Q 264 395.5 267.5 394 Q 271 392.5 274.5 390.5 Q 278 388.5 281 385.5 Q 284 382.5 287.5 378.5 Q 291 374.5 294 370 Q 297 365.5 299.5 361 Q 302 356.5 304 351 Q 306 345.5 308 340.5 Q 310 335.5 310.5 331 Q 311 326.5 311 322.5 Q 311 318.5 309.5 314 Q 308 309.5 305 306 Q 302 302.5 298 299.5 Q 294 296.5 288.5 293.5 Q 283 290.5 278 289 Q 273 287.5 268.5 287.5 Q 264 287.5 261 287.5 L 257.997 287.5" stroke-linecap="round" />
</g>
<g transform="matrix(1 0 0 1 255.5 348.31)"  >
<path style="stroke: rgb(0,0,0); stroke-width: 3; stroke-dasharray: none; stroke-linecap: round; stroke-dashoffset: 0; stroke-linejoin: round; stroke-miterlimit: 10; fill: none; fill-rule: nonzero; opacity: 1;"  transform=" translate(-255.5, -348.31)" d="M 259.003 326.5 Q 259 326.5 256 327.5 Q 253 328.5 251 328.5 Q 249 328.5 247 329.5 Q 245 330.5 244 334 Q 243 337.5 243 340 Q 243 342.5 243.5 344.5 Q 244 346.5 245 349 Q 246 351.5 247.5 354 Q 249 356.5 251 359.5 Q 253 362.5 255 365 Q 257 367.5 258.5 369 Q 260 370.5 262 369 Q 264 367.5 265 365.5 Q 266 363.5 267 360.5 L 268.003 357.497" stroke-linecap="round" />
</g>
</svg>