<?xml version="1.0" encoding="UTF-8" standalone="no" ?>
<!DOCTYPE svg PUBLIC "-//W3C//DTD SVG 1.1//EN" "http://www.w3.org/Graphics/SVG/1.1/DTD/svg11.dtd">
<svg xmlns="http://www.w3.org/2000/svg" xmlns:xlink="http://www.w3.org/1999/xlink" version="1.1" width="864" height="456" viewBox="0 0 864 456" xml:space="preserve">
<desc>Created with Fabric.js 4.3.1</desc>
<defs>
</defs>
<g transform="matrix(1 0 0 1 155.98 102.57)"  >
<path style="stroke: rgb(0,0,0); stroke-width: 3; stroke-dasharray: none; stroke-linecap: round; stroke-dashoffset: 0; stroke-linejoin: round; stroke-miterlimit: 10; fill: none; fill-rule: nonzero; opacity: 1;"  transform=" translate(-155.98, -102.56)" d="M 165.003 58.503 Q 165 58.5 165 56 Q 165 53.5 163 53 Q 161 52.5 158.5 53 Q 156 53.5 153 54.5 Q 150 55.5 147.5 56 Q 145 56.5 141.5 57 Q 138 57.5 135 58.5 Q 132 59.5 128.5 61 Q 125 62.5 122.5 64.5 Q 120 66.5 118 69 Q 116 71.5 114 73.5 Q 112 75.5 110 78.5 Q 108 81.5 106.5 84 Q 105 86.5 103.5 90 Q 102 93.5 101.5 97 Q 101 100.5 100.5 104 Q 100 107.5 100.5 111.5 Q 101 115.5 102 119.5 Q 103 123.5 104 127.5 Q 105 131.5 107 134.5 Q 109 137.5 111.5 139.5 Q 114 141.5 116.5 143.5 Q 119 145.5 122 147 Q 125 148.5 128 150 Q 131 151.5 134 152 Q 137 152.5 141 152.5 Q 145 152.5 149.5 151 Q 154 149.5 158 148 Q 162 146.5 166 145 Q 170 143.5 174 141.5 Q 178 139.5 181.5 137 Q 185 134.5 188.5 132 Q 192 129.5 194.5 126.5 Q 197 123.5 200 120.5 Q 203 117.5 205 114.5 Q 207 111.5 208.5 108 Q 210 104.5 210.5 101 Q 211 97.5 211.5 94 Q 212 90.5 211 87 Q 210 83.5 208.5 80 Q 207 76.5 205.5 73 Q 204 69.5 202 67 Q 200 64.5 197 63 Q 194 61.5 190.5 60.5 Q 187 59.5 183 59 Q 179 58.5 175 57.5 Q 171 56.5 167.5 55.5 Q 164 54.5 160.5 54.5 Q 157 54.5 154 54.5 Q 151 54.5 148.5 55.5 L 145.997 56.503" stroke-linecap="round" />
</g>
<g transform="matrix(1 0 0 1 154 104)"  >
<path style="stroke: rgb(0,0,0); stroke-width: 3; stroke-dasharray: none; stroke-linecap: round; stroke-dashoffset: 0; stroke-linejoin: round; stroke-miterlimit: 10; fill: none; fill-rule: nonzero; opacity: 1;"  transform=" translate(-154, -104)" d="M 149.003 125.503 Q 149 125.5 146 117.5 Q 143 109.5 141 106 Q 139 102.5 138 100 Q 137 97.5 137 94.5 Q 137 91.5 138 89.5 Q 139 87.5 140.5 86 Q 142 84.5 144 83.5 Q 146 82.5 148 82.5 Q 150 82.5 152.5 82.5 Q 155 82.5 157.5 84 Q 160 85.5 162 88 Q 164 90.5 166 93.5 Q 168 96.5 169.5 100.5 Q 171 104.5 171 108 Q 171 111.5 170.5 114 L 169.997 116.503" stroke-linecap="round" />
</g>
<g transform="matrix(1 0 0 1 156 107)"  >
<path style="stroke: rgb(0,0,0); stroke-width: 3; stroke-dasharray: none; stroke-linecap: round; stroke-dashoffset: 0; stroke-linejoin: round; stroke-miterlimit: 10; fill: none; fill-rule: nonzero; opacity: 1;"  transform=" translate(-156, -107)" d="M 139.997 118.503 Q 140 118.5 142 117.5 Q 144 116.5 147 114.5 Q 150 112.5 154.5 109.5 Q 159 106.5 163 103.5 Q 167 100.5 169.5 98 L 172.003 95.497" stroke-linecap="round" />
</g>
<g transform="matrix(1 0 0 1 410.46 93.9)"  >
<path style="stroke: rgb(0,0,0); stroke-width: 3; stroke-dasharray: none; stroke-linecap: round; stroke-dashoffset: 0; stroke-linejoin: round; stroke-miterlimit: 10; fill: none; fill-rule: nonzero; opacity: 1;"  transform=" translate(-410.46, -93.9)" d="M 418.003 55.497 Q 418 55.5 400.5 58 Q 383 60.5 379.5 62.5 Q 376 64.5 373.5 66.5 Q 371 68.5 368.5 71.5 Q 366 74.5 365 78 Q 364 81.5 364.5 85.5 Q 365 89.5 367 94.5 Q 369 99.5 372 104 Q 375 108.5 379 113 Q 383 117.5 387.5 121.5 Q 392 125.5 397.5 128.5 Q 403 131.5 407.5 132 Q 412 132.5 417.5 131 Q 423 129.5 428.5 126 Q 434 122.5 438.5 118 Q 443 113.5 447 108.5 Q 451 103.5 453 99 Q 455 94.5 456 91 Q 457 87.5 456 84.5 Q 455 81.5 452 79 Q 449 76.5 444.5 75 Q 440 73.5 434.5 73 Q 429 72.5 423.5 73.5 Q 418 74.5 414.5 75.5 L 410.997 76.503" stroke-linecap="round" />
</g>
<g transform="matrix(1 0 0 1 393.5 106.5)"  >
<path style="stroke: rgb(0,0,0); stroke-width: 3; stroke-dasharray: none; stroke-linecap: round; stroke-dashoffset: 0; stroke-linejoin: round; stroke-miterlimit: 10; fill: none; fill-rule: nonzero; opacity: 1;"  transform=" translate(-393.5, -106.5)" d="M 387.997 94.497 Q 388 94.5 390 95.5 Q 392 96.5 393.5 100.5 Q 395 104.5 395.5 107 Q 396 109.5 397 112 Q 398 114.5 398.5 116.5 L 399.003 118.503" stroke-linecap="round" />
</g>
<g transform="matrix(1 0 0 1 404.85 95)"  >
<path style="stroke: rgb(0,0,0); stroke-width: 3; stroke-dasharray: none; stroke-linecap: round; stroke-dashoffset: 0; stroke-linejoin: round; stroke-miterlimit: 10; fill: none; fill-rule: nonzero; opacity: 1;"  transform=" translate(-404.85, -95)" d="M 385.997 88.503 Q 386 88.5 388.5 86.5 Q 391 84.5 393 83 Q 395 81.5 397 80.5 Q 399 79.5 401 78.5 Q 403 77.5 405 77.5 Q 407 77.5 407.5 80.5 Q 408 83.5 407.5 85.5 Q 407 87.5 406.5 89.5 Q 406 91.5 409.5 92 Q 413 92.5 415 92.5 Q 417 92.5 419 92.5 Q 421 92.5 422.5 95.5 Q 424 98.5 423 101 Q 422 103.5 420.5 105 Q 419 106.5 417.5 108.5 Q 416 110.5 414 111.5 L 411.997 112.503" stroke-linecap="round" />
</g>
<g transform="matrix(1 0 0 1 261 342.41)"  >
<path style="stroke: rgb(0,0,0); stroke-width: 3; stroke-dasharray: none; stroke-linecap: round; stroke-dashoffset: 0; stroke-linejoin: round; stroke-miterlimit: 10; fill: none; fill-rule: nonzero; opacity: 1;"  transform=" translate(-261, -342.41)" d="M 275.003 307.503 Q 275 307.5 267.5 301 Q 260 294.5 256 293 Q 252 291.5 249.5 291.5 Q 247 291.5 243.5 292 Q 240 292.5 237 294 Q 234 295.5 231.5 297.5 Q 229 299.5 226 302.5 Q 223 305.5 220.5 309 Q 218 312.5 216 317 Q 214 321.5 213 326 Q 212 330.5 211.5 336 Q 211 341.5 211 347 Q 211 352.5 212 357 Q 213 361.5 214.5 365.5 Q 216 369.5 218 373.5 Q 220 377.5 222.5 380.5 Q 225 383.5 227.5 386 Q 230 388.5 234 391 Q 238 393.5 242.5 395 Q 247 396.5 251 397 Q 255 397.5 259.5 396.5 Q 264 395.5 267.5 394 Q 271 392.5 274.5 390.5 Q 278 388.5 281 385.5 Q 284 382.5 287.5 378.5 Q 291 374.5 294 370 Q 297 365.5 299.5 361 Q 302 356.5 304 351 Q 306 345.5 308 340.5 Q 310 335.5 310.5 331 Q 311 326.5 311 322.5 Q 311 318.5 309.5 314 Q 308 309.5 305 306 Q 302 302.5 298 299.5 Q 294 296.5 288.5 293.5 Q 283 290.5 278 289 Q 273 287.5 268.5 287.5 Q 264 287.5 261 287.5 L 257.997 287.5" stroke-linecap="round" />
</g>
<g transform="matrix(1 0 0 1 255.5 348.31)"  >
<path style="stroke: rgb(0,0,0); stroke-width: 3; stroke-dasharray: none; stroke-linecap: round; stroke-dashoffset: 0; stroke-linejoin: round; stroke-miterlimit: 10; fill: none; fill-rule: nonzero; opacity: 1;"  transform=" translate(-255.5, -348.31)" d="M 259.003 326.5 Q 259 326.5 256 327.5 Q 253 328.5 251 328.5 Q 249 328.5 247 329.5 Q 245 330.5 244 334 Q 243 337.5 243 340 Q 243 342.5 243.5 344.5 Q 244 346.5 245 349 Q 246 351.5 247.5 354 Q 249 356.5 251 359.5 Q 253 362.5 255 365 Q 257 367.5 258.5 369 Q 260 370.5 262 369 Q 264 367.5 265 365.5 Q 266 363.5 267 360.5 L 268.003 357.497" stroke-linecap="round" />
</g>
<g transform="matrix(1 0 0 1 290.75 95.5)"  >
<path style="stroke: rgb(0,0,0); stroke-width: 3; stroke-dasharray: none; stroke-linecap: round; stroke-dashoffset: 0; stroke-linejoin: round; stroke-miterlimit: 10; fill: none; fill-rule: nonzero; opacity: 1;"  transform=" translate(-290.75, -95.5)" d="M 212.997 91.5 Q 213 91.5 211 91.5 Q 209 91.5 211 91.5 Q 213 91.5 215.5 92 Q 218 92.5 222.5 92 Q 227 91.5 229.5 91 Q 232 90.5 235 90 Q 238 89.5 240.5 89.5 Q 243 89.5 246 89.5 Q 249 89.5 251.5 89.5 Q 254 89.5 257 89.5 Q 260 89.5 263 90 Q 266 90.5 269 91 Q 272 91.5 275 92 Q 278 92.5 282 92.5 Q 286 92.5 290 92.5 Q 294 92.5 297.5 92.5 Q 301 92.5 304.5 92.5 Q 308 92.5 311 92.5 Q 314 92.5 317.5 92.5 Q 321 92.5 324.5 92.5 Q 328 92.5 331 93 Q 334 93.5 336.5 94 Q 339 94.5 342 95 Q 345 95.5 347.5 96 Q 350 96.5 352 97.5 Q 354 98.5 356 98.5 Q 358 98.5 360 99 Q 362 99.5 365 100 Q 368 100.5 370 101 L 372.003 101.503" stroke-linecap="round" />
</g>
<g transform="matrix(1 0 0 1 278 60)"  >
<path style="stroke: rgb(0,0,0); stroke-width: 3; stroke-dasharray: none; stroke-linecap: round; stroke-dashoffset: 0; stroke-linejoin: round; stroke-miterlimit: 10; fill: none; fill-rule: nonzero; opacity: 1;"  transform=" translate(-278, -60)" d="M 279 47.497 Q 279 47.5 278 53 Q 277 58.5 277 62 Q 277 65.5 278 69 L 279.003 72.503" stroke-linecap="round" />
</g>
<g transform="matrix(1 0 0 1 350.65 214.2)"  >
<path style="stroke: rgb(0,0,0); stroke-width: 3; stroke-dasharray: none; stroke-linecap: round; stroke-dashoffset: 0; stroke-linejoin: round; stroke-miterlimit: 10; fill: none; fill-rule: nonzero; opacity: 1;"  transform=" translate(-350.65, -214.2)" d="M 301.003 292.497 Q 301 292.5 299.5 291 Q 298 289.5 297 291.5 Q 296 293.5 295 296 Q 294 298.5 293 300.5 Q 292 302.5 293.5 299.5 Q 295 296.5 296 294 Q 297 291.5 298 289 Q 299 286.5 300.5 284 Q 302 281.5 303 279 Q 304 276.5 305 274.5 Q 306 272.5 307.5 270.5 Q 309 268.5 310.5 265.5 Q 312 262.5 314 260 Q 316 257.5 317.5 255 Q 319 252.5 321 250 Q 323 247.5 325 244 Q 327 240.5 329.5 237 Q 332 233.5 334.5 230 Q 337 226.5 339.5 223 Q 342 219.5 344.5 216.5 Q 347 213.5 349 210.5 Q 351 207.5 353.5 204 Q 356 200.5 358 198 Q 360 195.5 362 192.5 Q 364 189.5 365.5 187 Q 367 184.5 369 182 Q 371 179.5 373 177 Q 375 174.5 376.5 172.5 Q 378 170.5 379.5 168 Q 381 165.5 382.5 163.5 Q 384 161.5 385 159.5 Q 386 157.5 388 154.5 Q 390 151.5 391.5 149 Q 393 146.5 394.5 144 Q 396 141.5 397.5 139.5 Q 399 137.5 401 135.5 Q 403 133.5 404.5 131.5 Q 406 129.5 407.5 128 L 409.003 126.497" stroke-linecap="round" />
</g>
<g transform="matrix(1 0 0 1 293 123.31)"  >
<path style="stroke: rgb(78,78,243); stroke-width: 3; stroke-dasharray: none; stroke-linecap: round; stroke-dashoffset: 0; stroke-linejoin: round; stroke-miterlimit: 10; fill: none; fill-rule: nonzero; opacity: 1;"  transform=" translate(-293, -123.31)" d="M 377.003 113.497 Q 377 113.5 374.5 114.5 Q 372 115.5 368.5 117 Q 365 118.5 362 120.5 Q 359 122.5 356 124.5 Q 353 126.5 351 127 Q 349 127.5 345.5 128.5 Q 342 129.5 340 130 Q 338 130.5 334.5 131.5 Q 331 132.5 328 133 Q 325 133.5 323 134 Q 321 134.5 318.5 134.5 Q 316 134.5 313.5 135 Q 311 135.5 309 135.5 Q 307 135.5 303.5 136 Q 300 136.5 297.5 136.5 Q 295 136.5 293 136.5 Q 291 136.5 289 136.5 Q 287 136.5 285 136.5 Q 283 136.5 279.5 136.5 Q 276 136.5 274 136.5 Q 272 136.5 270 136.5 Q 268 136.5 266 136 Q 264 135.5 262 135 Q 260 134.5 256.5 134 Q 253 133.5 249.5 133 Q 246 132.5 242.5 132 Q 239 131.5 236.5 130.5 Q 234 129.5 231.5 128 Q 229 126.5 227 125.5 Q 225 124.5 223 123.5 Q 221 122.5 218.5 121 Q 216 119.5 214 118 Q 212 116.5 210.5 115 Q 209 113.5 209 116 Q 209 118.5 209 121.5 Q 209 124.5 210 126.5 Q 211 128.5 212 126.5 Q 213 124.5 214.5 121.5 Q 216 118.5 216.5 116.5 Q 217 114.5 217.5 112 Q 218 109.5 218 112 L 218 114.503" stroke-linecap="round" />
</g>
<g transform="matrix(1 0 0 1 368.33 100)"  >
<path style="stroke: rgb(0,0,0); stroke-width: 3; stroke-dasharray: none; stroke-linecap: round; stroke-dashoffset: 0; stroke-linejoin: round; stroke-miterlimit: 10; fill: none; fill-rule: nonzero; opacity: 1;"  transform=" translate(-368.33, -100)" d="M 362.003 90.5 Q 362 90.5 363.5 89 Q 365 87.5 363 87.5 Q 361 87.5 361 89.5 Q 361 91.5 362.5 93.5 Q 364 95.5 366 96.5 Q 368 97.5 370 98 Q 372 98.5 374 100.5 Q 376 102.5 375 104.5 Q 374 106.5 372 107.5 Q 370 108.5 367.5 109.5 Q 365 110.5 363 111.5 L 360.997 112.503" stroke-linecap="round" />
</g>
</svg>