<?xml version="1.0" encoding="UTF-8" standalone="no" ?>
<!DOCTYPE svg PUBLIC "-//W3C//DTD SVG 1.1//EN" "http://www.w3.org/Graphics/SVG/1.1/DTD/svg11.dtd">
<svg xmlns="http://www.w3.org/2000/svg" xmlns:xlink="http://www.w3.org/1999/xlink" version="1.1" width="864" height="456" viewBox="0 0 864 456" xml:space="preserve">
<desc>Created with Fabric.js 4.3.1</desc>
<defs>
</defs>
<g transform="matrix(1 0 0 1 26 173.5)"  >
<path style="stroke: rgb(0,0,0); stroke-width: 3; stroke-dasharray: none; stroke-linecap: round; stroke-dashoffset: 0; stroke-linejoin: round; stroke-miterlimit: 10; fill: none; fill-rule: nonzero; opacity: 1;"  transform=" translate(-26, -173.5)" d="M 22.997 100.497 Q 23 100.5 23.5 107 Q 24 113.5 25 118 Q 26 122.5 26 127 Q 26 131.5 26.5 137.5 Q 27 143.5 27 152 Q 27 160.5 27 169.5 Q 27 178.5 27 188 Q 27 197.5 27 206 Q 27 214.5 27.5 221.5 Q 28 228.5 28.5 234 Q 29 239.5 29 243 L 29 246.503" stroke-linecap="round" />
</g>
<g transform="matrix(1 0 0 1 429.5 159.5)"  >
<path style="stroke: rgb(0,0,0); stroke-width: 3; stroke-dasharray: none; stroke-linecap: round; stroke-dashoffset: 0; stroke-linejoin: round; stroke-miterlimit: 10; fill: none; fill-rule: nonzero; opacity: 1;"  transform=" translate(-429.5, -159.5)" d="M 17.997 100.497 Q 18 100.5 27 101.5 Q 36 102.5 40 103 Q 44 103.5 48.5 104 Q 53 104.5 58 105 Q 63 105.5 68.5 105.5 Q 74 105.5 80.5 105 Q 87 104.5 93.5 104.5 Q 100 104.5 107 104 Q 114 103.5 122 103.5 Q 130 103.5 138 103.5 Q 146 103.5 155 103.5 Q 164 103.5 173 103 Q 182 102.5 191 102.5 Q 200 102.5 210 102 Q 220 101.5 230 101.5 Q 240 101.5 250.5 101.5 Q 261 101.5 272 101 Q 283 100.5 294 99.5 Q 305 98.5 316 97 Q 327 95.5 338.5 94 Q 350 92.5 361.5 91.5 Q 373 90.5 383.5 89.5 Q 394 88.5 405.5 88 Q 417 87.5 428 87 Q 439 86.5 450 85.5 Q 461 84.5 472 83.5 Q 483 82.5 493.5 82 Q 504 81.5 514.5 81 Q 525 80.5 535 80.5 Q 545 80.5 555 80.5 Q 565 80.5 574.5 80.5 Q 584 80.5 593.5 80 Q 603 79.5 612 79.5 Q 621 79.5 629.5 79.5 Q 638 79.5 646.5 79.5 Q 655 79.5 663 79.5 Q 671 79.5 678.5 80 Q 686 80.5 693.5 80.5 Q 701 80.5 707.5 81 Q 714 81.5 720.5 82 Q 727 82.5 733 82.5 Q 739 82.5 744.5 83 Q 750 83.5 755 84 Q 760 84.5 764.5 84.5 Q 769 84.5 773 84.5 Q 777 84.5 781 85 Q 785 85.5 789 85.5 Q 793 85.5 796.5 86 Q 800 86.5 803.5 86.5 Q 807 86.5 810.5 86.5 Q 814 86.5 816.5 86.5 Q 819 86.5 821.5 86.5 Q 824 86.5 826 87 Q 828 87.5 831 87.5 Q 834 87.5 836.5 87 Q 839 86.5 840 88.5 Q 841 90.5 841 92.5 Q 841 94.5 841 97 Q 841 99.5 840.5 103 Q 840 106.5 840 110.5 Q 840 114.5 840 119 Q 840 123.5 840 129 Q 840 134.5 840 139.5 Q 840 144.5 840 149.5 Q 840 154.5 839.5 159.5 Q 839 164.5 839 168.5 Q 839 172.5 839 176 Q 839 179.5 839 182.5 Q 839 185.5 839 188 Q 839 190.5 838 194 Q 837 197.5 836 199.5 Q 835 201.5 832.5 203 Q 830 204.5 827 205.5 Q 824 206.5 820 207 Q 816 207.5 811.5 208 Q 807 208.5 801 209 Q 795 209.5 790 210 Q 785 210.5 776 211 Q 767 211.5 758.5 211.5 Q 750 211.5 741 212 Q 732 212.5 723 212.5 Q 714 212.5 704 212.5 Q 694 212.5 684 213 Q 674 213.5 663 213.5 Q 652 213.5 641 214 Q 630 214.5 619.5 215 Q 609 215.5 598 215.5 Q 587 215.5 575.5 216 Q 564 216.5 553 216.5 Q 542 216.5 530.5 217 Q 519 217.5 507.5 218 Q 496 218.5 485.5 218.5 Q 475 218.5 464 218.5 Q 453 218.5 442 219 Q 431 219.5 420 220 Q 409 220.5 398.5 220.5 Q 388 220.5 377.5 221 Q 367 221.5 357 222 Q 347 222.5 337 222.5 Q 327 222.5 317 223 Q 307 223.5 297.5 224 Q 288 224.5 278.5 225 Q 269 225.5 260 226 Q 251 226.5 242.5 227.5 Q 234 228.5 225 229 Q 216 229.5 207.5 230 Q 199 230.5 190.5 231.5 Q 182 232.5 174 233 Q 166 233.5 158.5 234 Q 151 234.5 143.5 234.5 Q 136 234.5 129 234.5 Q 122 234.5 115 234.5 Q 108 234.5 101.5 234.5 Q 95 234.5 89 234.5 Q 83 234.5 77 234.5 Q 71 234.5 65 234.5 Q 59 234.5 53 235 Q 47 235.5 41.5 236 Q 36 236.5 31 237.5 Q 26 238.5 22.5 239 L 18.997 239.503" stroke-linecap="round" />
</g>
<g transform="matrix(1 0 0 1 408.5 166)"  >
<path style="stroke: rgb(0,0,0); stroke-width: 3; stroke-dasharray: none; stroke-linecap: round; stroke-dashoffset: 0; stroke-linejoin: round; stroke-miterlimit: 10; fill: none; fill-rule: nonzero; opacity: 1;"  transform=" translate(-408.5, -166)" d="M 405.997 88.497 Q 406 88.5 406 92 Q 406 95.5 406.5 97.5 Q 407 99.5 407 102 Q 407 104.5 407.5 107 Q 408 109.5 408.5 112.5 Q 409 115.5 409 119 Q 409 122.5 409.5 126.5 Q 410 130.5 410 134 Q 410 137.5 409.5 140.5 Q 409 143.5 409 147 Q 409 150.5 409 154.5 Q 409 158.5 409 162.5 Q 409 166.5 409 170.5 Q 409 174.5 408.5 179 Q 408 183.5 407.5 188 Q 407 192.5 406.5 196.5 Q 406 200.5 406 204.5 Q 406 208.5 406 212 Q 406 215.5 406.5 219 Q 407 222.5 407 225 Q 407 227.5 407.5 229.5 Q 408 231.5 408 233.5 Q 408 235.5 408.5 237.5 Q 409 239.5 410 241.5 L 411.003 243.503" stroke-linecap="round" />
</g>
<g transform="matrix(1 0 0 1 298 166.5)"  >
<path style="stroke: rgb(0,0,0); stroke-width: 3; stroke-dasharray: none; stroke-linecap: round; stroke-dashoffset: 0; stroke-linejoin: round; stroke-miterlimit: 10; fill: none; fill-rule: nonzero; opacity: 1;"  transform=" translate(-298, -166.5)" d="M 301 101.497 Q 301 101.5 300 105 Q 299 108.5 299 110.5 Q 299 112.5 299 115 Q 299 117.5 299 122 Q 299 126.5 299 131 Q 299 135.5 299 141 Q 299 146.5 299 152.5 Q 299 158.5 298.5 165 Q 298 171.5 298 178.5 Q 298 185.5 298 191 Q 298 196.5 298 201.5 Q 298 206.5 298 210.5 Q 298 214.5 297.5 217.5 Q 297 220.5 296.5 223.5 Q 296 226.5 295.5 229 L 294.997 231.503" stroke-linecap="round" />
</g>
<g transform="matrix(1 0 0 1 201.5 169.5)"  >
<path style="stroke: rgb(0,0,0); stroke-width: 3; stroke-dasharray: none; stroke-linecap: round; stroke-dashoffset: 0; stroke-linejoin: round; stroke-miterlimit: 10; fill: none; fill-rule: nonzero; opacity: 1;"  transform=" translate(-201.5, -169.5)" d="M 202 97.497 Q 202 97.5 201.5 104.5 Q 201 111.5 201 116 Q 201 120.5 200.5 125 Q 200 129.5 200 133.5 Q 200 137.5 200.5 142.5 Q 201 147.5 201 153 Q 201 158.5 201 164 Q 201 169.5 201.5 176 Q 202 182.5 202 188.5 Q 202 194.5 202 200 Q 202 205.5 202 211 Q 202 216.5 202.5 221.5 Q 203 226.5 203 231 Q 203 235.5 202.5 238.5 L 201.997 241.503" stroke-linecap="round" />
</g>
<g transform="matrix(1 0 0 1 100 112.5)"  >
<path style="stroke: rgb(0,0,0); stroke-width: 3; stroke-dasharray: none; stroke-linecap: round; stroke-dashoffset: 0; stroke-linejoin: round; stroke-miterlimit: 10; fill: none; fill-rule: nonzero; opacity: 1;"  transform=" translate(-100, -112.5)" d="M 99.997 112.5 L 100.003 112.5" stroke-linecap="round" />
</g>
<g transform="matrix(1 0 0 1 103.5 180.5)"  >
<path style="stroke: rgb(0,0,0); stroke-width: 3; stroke-dasharray: none; stroke-linecap: round; stroke-dashoffset: 0; stroke-linejoin: round; stroke-miterlimit: 10; fill: none; fill-rule: nonzero; opacity: 1;"  transform=" translate(-103.5, -180.5)" d="M 101.997 106.497 Q 102 106.5 102 108.5 Q 102 110.5 103 113.5 Q 104 116.5 105 120.5 Q 106 124.5 106 129.5 Q 106 134.5 106.5 140.5 Q 107 146.5 107 153.5 Q 107 160.5 107 167.5 Q 107 174.5 106.5 181.5 Q 106 188.5 105.5 196 Q 105 203.5 104 210 Q 103 216.5 102.5 222.5 Q 102 228.5 101.5 235 Q 101 241.5 100.5 245.5 Q 100 249.5 100 252 L 100 254.503" stroke-linecap="round" />
</g>
<g transform="matrix(1 0 0 1 509 143)"  >
<path style="stroke: rgb(0,0,0); stroke-width: 3; stroke-dasharray: none; stroke-linecap: round; stroke-dashoffset: 0; stroke-linejoin: round; stroke-miterlimit: 10; fill: none; fill-rule: nonzero; opacity: 1;"  transform=" translate(-509, -143)" d="M 500.997 80.497 Q 501 80.5 503.5 88.5 Q 506 96.5 507 101.5 Q 508 106.5 509.5 112.5 Q 511 118.5 512 125 Q 513 131.5 513.5 139 Q 514 146.5 514 155 Q 514 163.5 514 171 Q 514 178.5 514.5 185 Q 515 191.5 515.5 196 Q 516 200.5 516.5 203 L 517.003 205.503" stroke-linecap="round" />
</g>
<g transform="matrix(1 0 0 1 618.59 150)"  >
<path style="stroke: rgb(0,0,0); stroke-width: 3; stroke-dasharray: none; stroke-linecap: round; stroke-dashoffset: 0; stroke-linejoin: round; stroke-miterlimit: 10; fill: none; fill-rule: nonzero; opacity: 1;"  transform=" translate(-618.59, -150)" d="M 612.997 84.497 Q 613 84.5 612.5 87 Q 612 89.5 613 95.5 Q 614 101.5 615 107 Q 616 112.5 617.5 120 Q 619 127.5 620.5 135.5 Q 622 143.5 623 152 Q 624 160.5 624 168 Q 624 175.5 624 182.5 Q 624 189.5 624.5 195.5 Q 625 201.5 625 206 Q 625 210.5 625 213 L 625 215.503" stroke-linecap="round" />
</g>
<g transform="matrix(1 0 0 1 715 149)"  >
<path style="stroke: rgb(0,0,0); stroke-width: 3; stroke-dasharray: none; stroke-linecap: round; stroke-dashoffset: 0; stroke-linejoin: round; stroke-miterlimit: 10; fill: none; fill-rule: nonzero; opacity: 1;"  transform=" translate(-715, -149)" d="M 715 81.497 Q 715 81.5 716 84 Q 717 86.5 717 90 Q 717 93.5 717 99 Q 717 104.5 716.5 110 Q 716 115.5 716 122 Q 716 128.5 716 135 Q 716 141.5 716 149.5 Q 716 157.5 715.5 164.5 Q 715 171.5 714.5 179 Q 714 186.5 714 192.5 Q 714 198.5 713.5 203 Q 713 207.5 713 210 Q 713 212.5 713.5 214.5 L 714.003 216.503" stroke-linecap="round" />
</g>
<g transform="matrix(1 0 0 1 406 156.61)"  >
<path style="stroke: rgb(128,128,128); stroke-width: 3; stroke-dasharray: none; stroke-linecap: round; stroke-dashoffset: 0; stroke-linejoin: round; stroke-miterlimit: 10; fill: none; fill-rule: nonzero; opacity: 1;"  transform=" translate(-406, -156.61)" d="M 397.997 83.497 Q 398 83.5 399 93.5 Q 400 103.5 401.5 117.5 Q 403 131.5 403 140.5 Q 403 149.5 403.5 160.5 Q 404 171.5 405 183.5 Q 406 195.5 407 208 Q 408 220.5 408.5 231 Q 409 241.5 409.5 250 Q 410 258.5 409.5 263.5 Q 409 268.5 407 262.5 Q 405 256.5 405 248.5 Q 405 240.5 405.5 231 Q 406 221.5 406.5 211 Q 407 200.5 407 190.5 Q 407 180.5 407.5 169.5 Q 408 158.5 408.5 147 Q 409 135.5 409.5 124 Q 410 112.5 410.5 101.5 Q 411 90.5 411 80.5 Q 411 70.5 411 61.5 Q 411 52.5 411.5 46 Q 412 39.5 412 37 Q 412 34.5 412.5 39.5 Q 413 44.5 413 52 Q 413 59.5 412.5 69.5 Q 412 79.5 412 91.5 Q 412 103.5 412 118 Q 412 132.5 412 147 Q 412 161.5 412.5 176.5 Q 413 191.5 413 205.5 Q 413 219.5 413 231.5 Q 413 243.5 413.5 253 Q 414 262.5 414 267.5 Q 414 272.5 414 275 Q 414 277.5 413.5 274.5 Q 413 271.5 412 264.5 Q 411 257.5 409.5 246 Q 408 234.5 407.5 219.5 Q 407 204.5 406.5 187 Q 406 169.5 405.5 152.5 Q 405 135.5 405 121 Q 405 106.5 405 93.5 Q 405 80.5 404.5 69.5 Q 404 58.5 404 50.5 Q 404 42.5 403.5 37 Q 403 31.5 403.5 28 Q 404 24.5 404.5 22 Q 405 19.5 406.5 26.5 Q 408 33.5 408 43.5 Q 408 53.5 408 66 Q 408 78.5 407.5 95.5 Q 407 112.5 407 130 Q 407 147.5 407 163 Q 407 178.5 407 191.5 Q 407 204.5 406.5 217.5 Q 406 230.5 406.5 243 Q 407 255.5 407 265 Q 407 274.5 407 281 Q 407 287.5 406.5 290.5 Q 406 293.5 405 290.5 Q 404 287.5 403.5 280.5 Q 403 273.5 402 264 Q 401 254.5 400.5 242 Q 400 229.5 399.5 214 Q 399 198.5 399.5 181.5 Q 400 164.5 400.5 146.5 Q 401 128.5 402 110.5 L 403.003 92.497" stroke-linecap="round" />
</g>
<g transform="matrix(1 0 0 1 409.94 151.88)"  >
<path style="stroke: rgb(128,128,128); stroke-width: 3; stroke-dasharray: none; stroke-linecap: round; stroke-dashoffset: 0; stroke-linejoin: round; stroke-miterlimit: 10; fill: none; fill-rule: nonzero; opacity: 1;"  transform=" translate(-409.94, -151.88)" d="M 407 27.497 Q 407 27.5 408 25.5 Q 409 23.5 409 28.5 Q 409 33.5 409 42.5 Q 409 51.5 408.5 65.5 Q 408 79.5 408 97 Q 408 114.5 409 135.5 Q 410 156.5 411 178 Q 412 199.5 412.5 216 Q 413 232.5 412.5 242 Q 412 251.5 411.5 258.5 Q 411 265.5 410.5 270 Q 410 274.5 409.5 277 L 408.997 279.503" stroke-linecap="round" />
</g>
<g transform="matrix(1 0 0 1 333.5 300.69)"  >
<path style="stroke: rgb(0,0,0); stroke-width: 3; stroke-dasharray: none; stroke-linecap: round; stroke-dashoffset: 0; stroke-linejoin: round; stroke-miterlimit: 10; fill: none; fill-rule: nonzero; opacity: 1;"  transform=" translate(-333.5, -300.69)" d="M 351.003 277.497 Q 351 277.5 342 275 Q 333 272.5 329 274.5 Q 325 276.5 322.5 279.5 Q 320 282.5 318.5 285.5 Q 317 288.5 315 294 Q 313 299.5 313 304.5 Q 313 309.5 315 314.5 Q 317 319.5 320 323 Q 323 326.5 326.5 327.5 Q 330 328.5 334 328 Q 338 327.5 341 326 Q 344 324.5 347 322 Q 350 319.5 351.5 316.5 Q 353 313.5 353.5 311 Q 354 308.5 354 305.5 Q 354 302.5 352 299 Q 350 295.5 348 291.5 Q 346 287.5 344 284 Q 342 280.5 341 278.5 L 339.997 276.497" stroke-linecap="round" />
</g>
<g transform="matrix(1 0 0 1 387.85 327.3)"  >
<path style="stroke: rgb(0,0,0); stroke-width: 3; stroke-dasharray: none; stroke-linecap: round; stroke-dashoffset: 0; stroke-linejoin: round; stroke-miterlimit: 10; fill: none; fill-rule: nonzero; opacity: 1;"  transform=" translate(-387.85, -327.3)" d="M 387.003 333.503 Q 387 333.5 388.5 330 Q 390 326.5 389 323.5 Q 388 320.5 387 322.5 Q 386 324.5 386 327 Q 386 329.5 386 331.5 L 386 333.503" stroke-linecap="round" />
</g>
<g transform="matrix(1 0 0 1 439.09 302)"  >
<path style="stroke: rgb(0,0,0); stroke-width: 3; stroke-dasharray: none; stroke-linecap: round; stroke-dashoffset: 0; stroke-linejoin: round; stroke-miterlimit: 10; fill: none; fill-rule: nonzero; opacity: 1;"  transform=" translate(-439.09, -302)" d="M 431.003 280.497 Q 431 280.5 430.5 283.5 Q 430 286.5 428.5 289.5 Q 427 292.5 426 295 Q 425 297.5 427.5 298 Q 430 298.5 433.5 297.5 Q 437 296.5 440 296.5 Q 443 296.5 446 297.5 Q 449 298.5 450.5 300 Q 452 301.5 452.5 303.5 Q 453 305.5 451.5 308.5 Q 450 311.5 446.5 314.5 Q 443 317.5 440 320 Q 437 322.5 435 323 L 432.997 323.503" stroke-linecap="round" />
</g>
<g transform="matrix(1 0 0 1 445 273.5)"  >
<path style="stroke: rgb(0,0,0); stroke-width: 3; stroke-dasharray: none; stroke-linecap: round; stroke-dashoffset: 0; stroke-linejoin: round; stroke-miterlimit: 10; fill: none; fill-rule: nonzero; opacity: 1;"  transform=" translate(-445, -273.5)" d="M 427.997 275.503 Q 428 275.5 432 275.5 Q 436 275.5 440 275 Q 444 274.5 448.5 273.5 Q 453 272.5 455.5 272 Q 458 271.5 460 271.5 L 462.003 271.5" stroke-linecap="round" />
</g>
<g transform="matrix(1 0 0 1 64.6 397.81)"  >
<path style="stroke: rgb(0,0,0); stroke-width: 3; stroke-dasharray: none; stroke-linecap: round; stroke-dashoffset: 0; stroke-linejoin: round; stroke-miterlimit: 10; fill: none; fill-rule: nonzero; opacity: 1;"  transform=" translate(-64.6, -397.81)" d="M 82.003 383.497 Q 82 383.5 68.5 376.5 Q 55 369.5 53.5 371.5 Q 52 373.5 50 380 Q 48 386.5 47.5 396.5 Q 47 406.5 48.5 414 Q 50 421.5 53 423.5 Q 56 425.5 59.5 425 Q 63 424.5 67 422 Q 71 419.5 74 416 Q 77 412.5 77.5 410.5 Q 78 408.5 78 404.5 Q 78 400.5 76 396.5 Q 74 392.5 72 389.5 Q 70 386.5 68.5 383.5 L 66.997 380.497" stroke-linecap="round" />
</g>
<g transform="matrix(1 0 0 1 145.05 396.45)"  >
<path style="stroke: rgb(0,0,0); stroke-width: 3; stroke-dasharray: none; stroke-linecap: round; stroke-dashoffset: 0; stroke-linejoin: round; stroke-miterlimit: 10; fill: none; fill-rule: nonzero; opacity: 1;"  transform=" translate(-145.05, -396.45)" d="M 160.003 393.503 Q 160 393.5 158.5 390.5 Q 157 387.5 156 385.5 Q 155 383.5 152 380.5 Q 149 377.5 144.5 375 Q 140 372.5 136 373 Q 132 373.5 129 379.5 Q 126 385.5 125 394 Q 124 402.5 125.5 409.5 Q 127 416.5 131.5 418.5 Q 136 420.5 141.5 419.5 Q 147 418.5 151.5 414.5 Q 156 410.5 159.5 405 Q 163 399.5 164.5 394.5 Q 166 389.5 165.5 385.5 Q 165 381.5 163.5 378.5 L 161.997 375.497" stroke-linecap="round" />
</g>
<g transform="matrix(1 0 0 1 244.61 397.8)"  >
<path style="stroke: rgb(0,0,0); stroke-width: 3; stroke-dasharray: none; stroke-linecap: round; stroke-dashoffset: 0; stroke-linejoin: round; stroke-miterlimit: 10; fill: none; fill-rule: nonzero; opacity: 1;"  transform=" translate(-244.61, -397.8)" d="M 267.003 382.503 Q 267 382.5 261.5 378 Q 256 373.5 252.5 372 Q 249 370.5 244.5 370 Q 240 369.5 235.5 371.5 Q 231 373.5 227 378.5 Q 223 383.5 221 390 Q 219 396.5 219.5 403.5 Q 220 410.5 223.5 416 Q 227 421.5 231.5 424 Q 236 426.5 242 424 Q 248 421.5 253 417 Q 258 412.5 262 408 Q 266 403.5 268 399 Q 270 394.5 270 391 Q 270 387.5 269 384.5 L 267.997 381.497" stroke-linecap="round" />
</g>
<g transform="matrix(1 0 0 1 341.01 385.35)"  >
<path style="stroke: rgb(0,0,0); stroke-width: 3; stroke-dasharray: none; stroke-linecap: round; stroke-dashoffset: 0; stroke-linejoin: round; stroke-miterlimit: 10; fill: none; fill-rule: nonzero; opacity: 1;"  transform=" translate(-341.01, -385.35)" d="M 360.003 393.503 Q 360 393.5 361 389.5 Q 362 385.5 361.5 382.5 Q 361 379.5 354.5 373.5 Q 348 367.5 342 365.5 Q 336 363.5 328.5 364 Q 321 364.5 317 368.5 Q 313 372.5 310.5 380 Q 308 387.5 308.5 393.5 Q 309 399.5 313.5 403.5 Q 318 407.5 324.5 408.5 Q 331 409.5 339 408 Q 347 406.5 354 403 Q 361 399.5 365.5 395.5 Q 370 391.5 372 388.5 Q 374 385.5 373.5 381.5 Q 373 377.5 369.5 373 Q 366 368.5 363 365 L 359.997 361.497" stroke-linecap="round" />
</g>
<g transform="matrix(1 0 0 1 460.53 383.88)"  >
<path style="stroke: rgb(0,0,0); stroke-width: 3; stroke-dasharray: none; stroke-linecap: round; stroke-dashoffset: 0; stroke-linejoin: round; stroke-miterlimit: 10; fill: none; fill-rule: nonzero; opacity: 1;"  transform=" translate(-460.53, -383.88)" d="M 465.003 366.497 Q 465 366.5 456 361.5 Q 447 356.5 445 358.5 Q 443 360.5 441 364 Q 439 367.5 436 377 Q 433 386.5 431.5 393 Q 430 399.5 431 403.5 Q 432 407.5 435.5 409 Q 439 410.5 444.5 410.5 Q 450 410.5 456.5 408.5 Q 463 406.5 469.5 402.5 Q 476 398.5 481 394.5 Q 486 390.5 488 387.5 Q 490 384.5 490.5 381 Q 491 377.5 488.5 374.5 Q 486 371.5 483 368 Q 480 364.5 477.5 362.5 L 474.997 360.497" stroke-linecap="round" />
</g>
<g transform="matrix(1 0 0 1 590 378.5)"  >
<path style="stroke: rgb(0,0,0); stroke-width: 3; stroke-dasharray: none; stroke-linecap: round; stroke-dashoffset: 0; stroke-linejoin: round; stroke-miterlimit: 10; fill: none; fill-rule: nonzero; opacity: 1;"  transform=" translate(-590, -378.5)" d="M 580.997 348.497 Q 581 348.5 584.5 365.5 Q 588 382.5 589.5 389 Q 591 395.5 592.5 399.5 Q 594 403.5 596.5 406 L 599.003 408.503" stroke-linecap="round" />
</g>
<g transform="matrix(1 0 0 1 672.5 377.14)"  >
<path style="stroke: rgb(0,0,0); stroke-width: 3; stroke-dasharray: none; stroke-linecap: round; stroke-dashoffset: 0; stroke-linejoin: round; stroke-miterlimit: 10; fill: none; fill-rule: nonzero; opacity: 1;"  transform=" translate(-672.5, -377.14)" d="M 698.003 363.503 Q 698 363.5 694 358.5 Q 690 353.5 688 352 Q 686 350.5 681 348 Q 676 345.5 671.5 345 Q 667 344.5 662.5 348.5 Q 658 352.5 653.5 362 Q 649 371.5 646.5 382 Q 644 392.5 644 398.5 Q 644 404.5 647.5 407 Q 651 409.5 656.5 409.5 Q 662 409.5 668.5 406.5 Q 675 403.5 681.5 398.5 Q 688 393.5 692.5 388.5 Q 697 383.5 699 379 Q 701 374.5 701 369.5 Q 701 364.5 701 360.5 L 701 356.497" stroke-linecap="round" />
</g>
<g transform="matrix(1 0 0 1 740.5 383)"  >
<path style="stroke: rgb(0,0,0); stroke-width: 3; stroke-dasharray: none; stroke-linecap: round; stroke-dashoffset: 0; stroke-linejoin: round; stroke-miterlimit: 10; fill: none; fill-rule: nonzero; opacity: 1;"  transform=" translate(-740.5, -383)" d="M 738.997 339.497 Q 739 339.5 740 342 Q 741 344.5 742.5 351.5 Q 744 358.5 744 369.5 Q 744 380.5 742 390.5 Q 740 400.5 738.5 408 Q 737 415.5 737 421 L 737 426.503" stroke-linecap="round" />
</g>
</svg>