<svg version="1.1" viewBox="0.0 0.0 960.0 540.0" fill="none" stroke="none" stroke-linecap="square" stroke-miterlimit="10" xmlns:xlink="http://www.w3.org/1999/xlink" xmlns="http://www.w3.org/2000/svg"><clipPath id="g29c45da138e_0_16.0"><path d="m0 0l960.0 0l0 540.0l-960.0 0l0 -540.0z" clip-rule="nonzero"/></clipPath><g clip-path="url(#g29c45da138e_0_16.0)"><path fill="#ffffff" d="m0 0l960.0 0l0 540.0l-960.0 0z" fill-rule="evenodd"/><path fill="#cccccc" d="m0 276.57516l960.0 0l0 263.43307l-960.0 0z" fill-rule="evenodd"/><path stroke="#000000" stroke-width="1.0" stroke-linejoin="round" stroke-linecap="butt" d="m0 276.57516l960.0 0l0 263.43307l-960.0 0z" fill-rule="evenodd"/><path fill="#000000" d="m129.50781 454.1717l0 -91.625l34.375 0q10.5 0 16.84375 2.78125q6.34375 2.78125 9.9375 8.5625q3.59375 5.78125 3.59375 12.09375q0 5.875 -3.1875 11.0625q-3.1875 5.1875 -9.625 8.375q8.3125 2.4375 12.78125 8.3125q4.46875 5.875 4.46875 13.875q0 6.4375 -2.71875 11.96875q-2.71875 5.53125 -6.71875 8.53125q-4.0 3.0 -10.03125 4.53125q-6.03125 1.53125 -14.78125 1.53125l-34.9375 0zm12.125 -53.125l19.8125 0q8.0625 0 11.5625 -1.0625q4.625 -1.375 6.96875 -4.5625q2.34375 -3.1875 2.34375 -8.0q0 -4.5625 -2.1875 -8.03125q-2.1875 -3.46875 -6.25 -4.75q-4.0625 -1.28125 -13.9375 -1.28125l-18.3125 0l0 27.6875zm0 42.3125l22.8125 0q5.875 0 8.25 -0.4375q4.1875 -0.75 7.0 -2.5q2.8125 -1.75 4.625 -5.09375q1.8125 -3.34375 1.8125 -7.71875q0 -5.125 -2.625 -8.90625q-2.625 -3.78125 -7.28125 -5.3125q-4.65625 -1.53125 -13.40625 -1.53125l-21.1875 0l0 31.5z" fill-rule="nonzero"/><path fill="#cccccc" d="m0 0l960.0 0l0 263.43307l-960.0 0z" fill-rule="evenodd"/><path stroke="#000000" stroke-width="1.0" stroke-linejoin="round" stroke-linecap="butt" d="m0 0l960.0 0l0 263.43307l-960.0 0z" fill-rule="evenodd"/><path fill="#000000" d="m119.94531 177.59653l35.1875 -91.625l13.0625 0l37.5 91.625l-13.8125 0l-10.6875 -27.75l-38.3125 0l-10.0625 27.75l-12.875 0zm26.4375 -37.625l31.0625 0l-9.5625 -25.375q-4.375 -11.5625 -6.5 -19.0q-1.75 8.8125 -4.9375 17.5l-10.0625 26.875z" fill-rule="nonzero"/><path fill="#0b5394" d="m735.7298 303.87488l193.85828 0l0 208.81891l-193.85828 0z" fill-rule="evenodd"/><path fill="#ffffff" d="m838.7058 431.22433l-5.625 0l0 -35.84375q-2.03125 1.9375 -5.328125 3.875q-3.296875 1.9375 -5.921875 2.90625l0 -5.4375q4.71875 -2.21875 8.25 -5.375q3.53125 -3.15625 5.0 -6.125l3.625 0l0 46.0z" fill-rule="nonzero"/><path fill="#fff2cc" d="m521.95746 34.273727l193.85828 0l0 208.8189l-193.85828 0z" fill-rule="evenodd"/><path fill="#000000" d="m603.746 139.02942q0 -8.125 1.671875 -13.078125q1.671875 -4.953125 4.96875 -7.640625q3.296875 -2.6875 8.296875 -2.6875q3.6875 0 6.46875 1.484375q2.78125 1.484375 4.59375 4.28125q1.8125 2.796875 2.84375 6.8125q1.03125 4.015625 1.03125 10.828125q0 8.0625 -1.65625 13.015625q-1.65625 4.953125 -4.953125 7.65625q-3.296875 2.703125 -8.328125 2.703125q-6.625 0 -10.40625 -4.75q-4.53125 -5.71875 -4.53125 -18.625zm5.78125 0q0 11.28125 2.640625 15.015625q2.640625 3.734375 6.515625 3.734375q3.875 0 6.515625 -3.75q2.640625 -3.75 2.640625 -15.0q0 -11.3125 -2.640625 -15.03125q-2.640625 -3.71875 -6.578125 -3.71875q-3.875 0 -6.1875 3.28125q-2.90625 4.1875 -2.90625 15.46875z" fill-rule="nonzero"/><path fill="#0b5394" d="m302.91913 34.273727l193.85828 0l0 208.8189l-193.85828 0z" fill-rule="evenodd"/><path fill="#ffffff" d="m405.89514 161.62317l-5.625 0l0 -35.84375q-2.03125 1.9375 -5.328125 3.875q-3.296875 1.9375 -5.921875 2.90625l0 -5.4375q4.71875 -2.21875 8.25 -5.375q3.53125 -3.15625 5.0 -6.125l3.625 0l0 46.0z" fill-rule="nonzero"/><path fill="#0b5394" d="m527.24243 303.87488l193.85822 0l0 208.81891l-193.85822 0z" fill-rule="evenodd"/><path fill="#ffffff" d="m630.2184 431.22433l-5.625 0l0 -35.84375q-2.03125 1.9375 -5.328125 3.875q-3.296875 1.9375 -5.921875 2.90625l0 -5.4375q4.71875 -2.21875 8.25 -5.375q3.53125 -3.15625 5.0 -6.125l3.625 0l0 46.0z" fill-rule="nonzero"/><path fill="#fff2cc" d="m730.4638 34.273727l193.85822 0l0 208.8189l-193.85822 0z" fill-rule="evenodd"/><path fill="#000000" d="m812.25226 139.02942q0 -8.125 1.671875 -13.078125q1.671875 -4.953125 4.96875 -7.640625q3.296875 -2.6875 8.296875 -2.6875q3.6875 0 6.46875 1.484375q2.78125 1.484375 4.59375 4.28125q1.8125 2.796875 2.84375 6.8125q1.03125 4.015625 1.03125 10.828125q0 8.0625 -1.65625 13.015625q-1.65625 4.953125 -4.953125 7.65625q-3.296875 2.703125 -8.328125 2.703125q-6.625 0 -10.40625 -4.75q-4.53125 -5.71875 -4.53125 -18.625zm5.78125 0q0 11.28125 2.640625 15.015625q2.640625 3.734375 6.515625 3.734375q3.875 0 6.515625 -3.75q2.640625 -3.75 2.640625 -15.0q0 -11.3125 -2.640625 -15.03125q-2.640625 -3.71875 -6.578125 -3.71875q-3.875 0 -6.1875 3.28125q-2.90625 4.1875 -2.90625 15.46875z" fill-rule="nonzero"/><path fill="#fff2cc" d="m308.18512 303.87488l193.85828 0l0 208.81891l-193.85828 0z" fill-rule="evenodd"/><path fill="#000000" d="m389.97363 408.63058q0 -8.125 1.671875 -13.078125q1.671875 -4.953125 4.96875 -7.640625q3.296875 -2.6875 8.296875 -2.6875q3.6875 0 6.46875 1.484375q2.78125 1.484375 4.59375 4.28125q1.8125 2.796875 2.84375 6.8125q1.03125 4.015625 1.03125 10.828125q0 8.0625 -1.65625 13.015625q-1.65625 4.953125 -4.953125 7.65625q-3.296875 2.703125 -8.328125 2.703125q-6.625 0 -10.40625 -4.75q-4.53125 -5.71875 -4.53125 -18.625zm5.78125 0q0 11.28125 2.640625 15.015625q2.640625 3.734375 6.515625 3.734375q3.875 0 6.515625 -3.75q2.640625 -3.75 2.640625 -15.0q0 -11.3125 -2.640625 -15.03125q-2.640625 -3.71875 -6.578125 -3.71875q-3.875 0 -6.1875 3.28125q-2.90625 4.1875 -2.90625 15.46875z" fill-rule="nonzero"/><path fill="#0b5394" d="m521.95557 34.273727l193.85828 0l0 208.8189l-193.85828 0z" fill-rule="evenodd"/><path fill="#ffffff" d="m624.9316 161.62317l-5.625 0l0 -35.84375q-2.03125 1.9375 -5.328125 3.875q-3.296875 1.9375 -5.921875 2.90625l0 -5.4375q4.71875 -2.21875 8.25 -5.375q3.53125 -3.15625 5.0 -6.125l3.625 0l0 46.0z" fill-rule="nonzero"/><path fill="#0b5394" d="m730.4619 34.273727l193.85822 0l0 208.8189l-193.85822 0z" fill-rule="evenodd"/><path fill="#ffffff" d="m833.43787 161.62317l-5.625 0l0 -35.84375q-2.03125 1.9375 -5.328125 3.875q-3.296875 1.9375 -5.921875 2.90625l0 -5.4375q4.71875 -2.21875 8.25 -5.375q3.53125 -3.15625 5.0 -6.125l3.625 0l0 46.0z" fill-rule="nonzero"/></g></svg>